<svg width="20" height="14" viewBox="0 0 20 14" fill="none" xmlns="http://www.w3.org/2000/svg">
<path d="M15.9679 13.6666H4.03116C3.5685 13.6679 3.12117 13.5055 2.77264 13.2097C2.42412 12.9139 2.19822 12.505 2.13709 12.0592L0.843849 2.7817C0.811737 2.55391 0.853025 2.32205 0.962034 2.11801C1.07104 1.91397 1.24242 1.74777 1.45258 1.64228C1.66275 1.53679 1.90138 1.49718 2.13565 1.52891C2.36992 1.56064 2.58833 1.66214 2.76082 1.81946L4.89523 3.73837C5.00805 3.84436 5.14209 3.92668 5.28902 3.9802C5.43595 4.03372 5.59263 4.05729 5.74933 4.04947C5.90603 4.04165 6.0594 4.00258 6.19992 3.93471C6.34043 3.86684 6.46509 3.77161 6.56614 3.65494L9.11828 0.729297C9.22571 0.605265 9.35973 0.505557 9.51097 0.437156C9.6622 0.368755 9.82699 0.333313 9.99379 0.333313C10.1606 0.333313 10.3254 0.368755 10.4766 0.437156C10.6279 0.505557 10.7619 0.605265 10.8693 0.729297L13.4329 3.65494C13.533 3.76981 13.6561 3.86373 13.7946 3.93102C13.9332 3.9983 14.0843 4.03756 14.2389 4.0464C14.3935 4.05524 14.5484 4.03348 14.6941 3.98245C14.8398 3.93141 14.9734 3.85216 15.0866 3.74949L17.221 1.83058C17.3918 1.66787 17.6108 1.56125 17.8472 1.52571C18.0835 1.49017 18.3254 1.52749 18.5388 1.63243C18.7522 1.73737 18.9264 1.90466 19.037 2.1108C19.1475 2.31693 19.1889 2.55155 19.1552 2.7817L17.8619 12.0536C17.8021 12.5004 17.5767 12.9107 17.2281 13.2076C16.8794 13.5045 16.4314 13.6677 15.9679 13.6666Z" fill="#0C141F"/>
</svg>
