<svg width="18" height="19" viewBox="0 0 18 19" fill="none" xmlns="http://www.w3.org/2000/svg">
<path d="M6.38183 17.1477V14.477C6.38182 13.8003 6.96111 13.2504 7.67861 13.2462H10.3133C11.0341 13.2462 11.6184 13.7972 11.6184 14.477V17.14C11.6184 17.727 12.1204 18.2041 12.7427 18.2083H14.5402C15.3797 18.2103 16.1856 17.8973 16.78 17.3381C17.3744 16.7789 17.7084 16.0198 17.7084 15.2279V7.64152C17.7084 7.00193 17.4078 6.39524 16.8876 5.98489L10.7812 1.37886C9.71371 0.573213 8.1892 0.599242 7.15336 1.44079L1.17817 5.98489C0.633426 6.38314 0.307836 6.99163 0.291748 7.64152V15.2202C0.291748 16.8705 1.71018 18.2083 3.4599 18.2083H5.21635C5.51599 18.2103 5.80411 18.0996 6.01676 17.9004C6.22942 17.7013 6.34902 17.4304 6.34901 17.1477H6.38183Z" fill="#C7CAD1"/>
</svg>
