<svg width="20" height="19" viewBox="0 0 20 19" fill="none" xmlns="http://www.w3.org/2000/svg">
<path d="M9.19371 18.1429H10.8154C11.347 18.1429 11.7458 17.8371 11.861 17.3361L12.3041 15.5442C12.6054 15.4423 12.8889 15.3319 13.1548 15.213L14.7941 16.1812C15.2284 16.4444 15.7512 16.402 16.1145 16.0538L17.2576 14.9583C17.6209 14.6101 17.6741 14.0921 17.3817 13.6675L16.3803 12.1134C16.5044 11.8586 16.6196 11.5869 16.7082 11.3236L18.5957 10.899C19.1185 10.7886 19.4287 10.4065 19.4287 9.89692V8.36832C19.4287 7.86728 19.1185 7.47664 18.5957 7.36624L16.7259 6.93314C16.6285 6.63591 16.5044 6.37265 16.3981 6.14336L17.3994 4.55532C17.683 4.12222 17.6475 3.63816 17.2665 3.28149L16.1145 2.18599C15.7423 1.86329 15.2727 1.80384 14.8207 2.04162L13.1548 3.02672C12.8978 2.90783 12.6142 2.79743 12.3129 2.69552L11.861 0.87819C11.7458 0.37715 11.347 0.0714302 10.8154 0.0714302H9.19371C8.65317 0.0714302 8.2544 0.37715 8.1392 0.87819L7.69613 2.68703C7.39484 2.78045 7.10241 2.89084 6.83657 3.01823L5.17948 2.04162C4.72755 1.80384 4.26675 1.85479 3.88571 2.18599L2.73372 3.28149C2.35268 3.63816 2.31724 4.12222 2.6008 4.55532L3.60215 6.14336C3.49581 6.37265 3.38061 6.63591 3.27427 6.93314L1.40451 7.36624C0.881684 7.47664 0.571533 7.86728 0.571533 8.36832V9.89692C0.571533 10.4065 0.881684 10.7886 1.40451 10.899L3.292 11.3236C3.38061 11.5869 3.49581 11.8586 3.61987 12.1134L2.61853 13.6675C2.3261 14.0921 2.37927 14.6101 2.75145 14.9583L3.88571 16.0538C4.24903 16.402 4.77186 16.4444 5.21493 16.1812L6.84543 15.213C7.11128 15.3319 7.39484 15.4423 7.69613 15.5442L8.1392 17.3361C8.2544 17.8371 8.65317 18.1429 9.19371 18.1429ZM10.0001 12.0794C8.29871 12.0794 6.90746 10.7376 6.90746 9.09865C6.90746 7.47664 8.29871 6.14336 10.0001 6.14336C11.7104 6.14336 13.1016 7.47664 13.1016 9.09865C13.1016 10.7376 11.7104 12.0794 10.0001 12.0794Z" fill="#C7CAD1"/>
</svg>
