<svg width="12" height="11" viewBox="0 0 12 11" fill="none" xmlns="http://www.w3.org/2000/svg">
<path d="M3.42393 11C3.73273 11 3.96027 10.854 4.33409 10.536L6.19232 8.96161H9.45372C11.0844 8.96161 12 8.0545 12 6.50616V2.45545C12 0.907109 11.0844 0 9.45372 0H2.54628C0.920993 0 0 0.907109 0 2.45545V6.50616C0 8.05972 0.948081 8.96161 2.50835 8.96161H2.73047V10.2389C2.73047 10.7028 2.9851 11 3.42393 11ZM3.69481 9.83223V8.34645C3.69481 8.03886 3.55395 7.91896 3.25056 7.91896H2.5842C1.56569 7.91896 1.0781 7.4237 1.0781 6.47488V2.48673C1.0781 1.53791 1.56569 1.04265 2.5842 1.04265H9.42122C10.4343 1.04265 10.9219 1.53791 10.9219 2.48673V6.47488C10.9219 7.4237 10.4343 7.91896 9.42122 7.91896H6.13273C5.80226 7.91896 5.63973 7.97109 5.41219 8.20047L3.69481 9.83223ZM3.24515 3.11754H8.70068C8.88488 3.11754 9.03657 2.97156 9.03657 2.7891C9.03657 2.61185 8.88488 2.46588 8.70068 2.46588H3.24515C3.06095 2.46588 2.91467 2.61185 2.91467 2.7891C2.91467 2.97156 3.06095 3.11754 3.24515 3.11754ZM3.24515 4.77536H8.70068C8.88488 4.77536 9.03657 4.62417 9.03657 4.44171C9.03657 4.26967 8.88488 4.11848 8.70068 4.11848H3.24515C3.06095 4.11848 2.91467 4.26967 2.91467 4.44171C2.91467 4.62417 3.06095 4.77536 3.24515 4.77536ZM3.24515 6.42796H6.7991C6.98871 6.42796 7.13499 6.28199 7.13499 6.10474C7.13499 5.92228 6.98871 5.7763 6.7991 5.7763H3.24515C3.06095 5.7763 2.91467 5.92228 2.91467 6.10474C2.91467 6.28199 3.06095 6.42796 3.24515 6.42796Z" fill="#586474"/>
</svg>
