<svg width="18" height="18" viewBox="0 0 18 18" fill="none" xmlns="http://www.w3.org/2000/svg">
<path fill-rule="evenodd" clip-rule="evenodd" d="M11.0093 12.3055C9.71012 13.277 8.09115 13.7204 6.47824 13.5463C4.86533 13.3723 3.37821 12.5937 2.31617 11.3674C1.25413 10.1411 0.696006 8.55803 0.754122 6.9368C0.812238 5.31557 1.48228 3.77652 2.6294 2.6294C3.77652 1.48228 5.31557 0.812238 6.9368 0.754122C8.55803 0.696006 10.1411 1.25413 11.3674 2.31617C12.5937 3.37821 13.3723 4.86533 13.5463 6.47824C13.7204 8.09115 13.277 9.71012 12.3055 11.0093L17.0465 15.7503C17.2135 15.9232 17.3059 16.1548 17.3038 16.3951C17.3017 16.6355 17.2053 16.8654 17.0353 17.0353C16.8654 17.2053 16.6355 17.3017 16.3951 17.3038C16.1548 17.3059 15.9232 17.2135 15.7503 17.0465L11.0093 12.3055ZM11.75 7.16667C11.75 8.38224 11.2671 9.54803 10.4076 10.4076C9.54803 11.2671 8.38224 11.75 7.16667 11.75C5.95109 11.75 4.7853 11.2671 3.92576 10.4076C3.06622 9.54803 2.58333 8.38224 2.58333 7.16667C2.58333 5.95109 3.06622 4.7853 3.92576 3.92576C4.7853 3.06622 5.95109 2.58333 7.16667 2.58333C8.38224 2.58333 9.54803 3.06622 10.4076 3.92576C11.2671 4.7853 11.75 5.95109 11.75 7.16667Z" fill="#7E8695"/>
</svg>
