<svg xmlns="http://www.w3.org/2000/svg" xmlns:xlink="http://www.w3.org/1999/xlink" width="49.879" height="37.226" viewBox="0 0 49.879 37.226">
  <defs>
    <clipPath id="clip-path">
      <rect id="Rectangle_19" data-name="Rectangle 19" width="49.879" height="37.226" transform="translate(0 0)" fill="#ff6429"/>
    </clipPath>
  </defs>
  <g id="quotation_mark" data-name="quotation mark" transform="translate(49.879 37.226) rotate(180)">
    <g id="Group_10" data-name="Group 10" transform="translate(0 0)" clip-path="url(#clip-path)">
      <path id="Path_15" data-name="Path 15" d="M31.343,34.315C39.769,28.494,43.9,23.132,43.9,18.077a2.094,2.094,0,0,0-2.145-2.145,3.454,3.454,0,0,0-1.072.306,18.8,18.8,0,0,1-2.911.306c-5.821,0-9.192-2.911-9.192-7.813C28.585,3.523,32.262,0,37.624,0c7.047,0,12.256,5.821,12.256,13.634,0,9.192-6.74,18.537-17.158,23.592Zm-28.586,0C11.183,28.494,15.32,23.132,15.32,18.077a2.1,2.1,0,0,0-2.145-2.145,3.457,3.457,0,0,0-1.072.306,18.785,18.785,0,0,1-2.91.306C3.37,16.545,0,13.634,0,8.732,0,3.523,3.676,0,9.038,0c6.893,0,12.255,5.821,12.255,13.634,0,9.192-6.74,18.537-17.158,23.592Z" transform="translate(0 0)" fill="#ff6429"/>
    </g>
  </g>
</svg>
