<svg width="514" height="113" viewBox="0 0 514 113" fill="none" xmlns="http://www.w3.org/2000/svg">
<g clip-path="url(#clip0_2_32)">
<path d="M511.612 0.471924H0V113.374H511.612V0.471924Z" fill="#FFCB03"/>
<path d="M-0.000900269 68.9797V74.1163H72.4314L76.218 68.9797H-0.000900269Z" fill="#D71634"/>
<path d="M0.000904083 78.5229V83.6649H65.4087L69.1881 78.5229H0.000904083Z" fill="#D71634"/>
<path d="M0.000904083 93.1787V88.0709H62.1636L58.4005 93.1787H0.000904083Z" fill="#D71634"/>
<path d="M439.448 88.0696L435.687 93.1849L511.612 93.1798L511.613 88.07L439.448 88.0696Z" fill="#D71634"/>
<path d="M446.472 78.5247L442.697 83.6653L511.613 83.6653L511.613 78.5256L446.472 78.5247Z" fill="#D71634"/>
<path d="M449.714 74.1216L453.496 68.9786L511.612 68.978L511.611 74.1188L449.714 74.1216Z" fill="#D71634"/>
<path d="M73.6255 43.0417L89.972 20.8349L184.245 20.8349C208.184 20.8348 214.301 39.7425 207.603 48.8299C202.681 55.5097 196.81 63.5015 196.81 63.5015L160.379 63.5015C153.458 63.5016 155.548 60.6553 156.703 59.0977C157.873 57.5178 159.43 55.3584 160.97 53.2219L160.971 53.2205C162.428 51.2011 163.869 49.2023 164.955 47.7326C167.155 44.7509 167.214 43.0417 162.711 43.0417L73.6255 43.0417Z" fill="#D71634"/>
<path d="M67.0122 93.1787L99.8442 48.5718L140.585 48.5718C145.088 48.5718 145.031 50.281 142.829 53.2644C141.881 54.5488 140.651 56.2246 139.376 57.9633L139.371 57.9692C137.64 60.3286 135.824 62.8031 134.514 64.5718C133.359 66.1348 131.27 68.9793 138.192 68.9793L192.772 68.9793C188.233 75.197 173.509 93.1787 147.072 93.1787L67.0122 93.1787Z" fill="#D71634"/>
<path d="M255.038 68.9761L237.236 93.179L190.27 93.1775C190.27 93.1775 208.065 68.9797 208.082 68.9785L255.038 68.9761Z" fill="#D71634"/>
<path d="M305.14 93.179L322.953 68.9788L276.003 68.9783C275.988 68.9781 258.191 93.1785 258.191 93.1785L305.14 93.179Z" fill="#D71634"/>
<path d="M338.226 68.9789C338.226 68.9789 334.796 73.6715 333.129 75.924C327.23 83.8942 332.443 93.1784 351.69 93.1784H427.088L444.898 68.9789L338.226 68.9789Z" fill="#D71634"/>
<path d="M326.985 63.5008L212.115 63.5008L243.527 20.8341L290.475 20.8341L272.475 45.2971L293.429 45.2971L311.445 20.8341L358.386 20.8341L326.985 63.5008Z" fill="#D71634"/>
<path d="M392.002 63.5015L423.406 20.8351L373.682 20.8347C373.667 20.8345 342.251 63.5014 342.251 63.5014L392.002 63.5015Z" fill="#D71634"/>
</g>
<defs>
<clipPath id="clip0_2_32">
<rect width="514" height="113" fill="white"/>
</clipPath>
</defs>
</svg>
