<svg width="512" height="234" viewBox="0 0 512 234" fill="none" xmlns="http://www.w3.org/2000/svg">
<g clip-path="url(#clip0_2_28)">
<path d="M368.235 84.7449V53.3871H321.463V32.5873H368.235V0H287.09V146.196H368.235V113.52H321.463V84.7449H368.235Z" fill="#FF5900"/>
<path d="M432.263 75.9317L411.806 53.3871H368.235L409.533 99.7952L368.235 146.196H410.481L430.559 123.473L450.823 146.196H494.573L452.912 99.6029L494.01 53.3871H451.957L432.263 75.9317Z" fill="#FF5900"/>
<path d="M252.861 0V59.8304H252.483C244.899 51.1203 235.434 48.091 224.45 48.091C201.947 48.091 184.993 63.3955 179.045 83.6183C172.251 61.3348 154.749 47.672 128.797 47.672C107.722 47.672 91.0783 57.1308 82.3956 72.5452V53.3871H38.8314V32.5873H86.3729V0H0V146.196H38.8314V84.7449H77.5391C76.3851 89.2579 75.7669 94.0938 75.7669 99.1976C75.7669 129.69 99.0671 151.094 128.797 151.094C153.801 151.094 170.28 139.355 178.99 117.957H145.709C141.209 124.394 137.795 126.296 128.797 126.296C118.363 126.296 109.364 117.195 109.364 106.403H177.128C180.068 130.624 198.938 151.513 224.828 151.513C235.997 151.513 246.225 146.018 252.476 136.744H252.854V146.21H287.083V0H252.861ZM110.449 85.1776C112.606 75.8905 119.812 69.8251 128.804 69.8251C138.702 69.8251 145.537 75.7051 147.337 85.1776C148.092 85.1776 110.449 85.1776 110.449 85.1776ZM232.082 123.94C219.463 123.94 211.618 112.18 211.618 99.9051C211.618 86.785 218.439 74.1664 232.082 74.1664C246.225 74.1664 251.858 86.785 251.858 99.9051C251.858 112.345 245.889 123.94 232.082 123.94Z" fill="#2A007C"/>
<path d="M287.097 219.291V166.907H316.043V170.816H291.871V190.132H315.02V194.04H291.871V215.376H317.122V219.291H287.097Z" fill="#2A007C"/>
<path d="M320.577 219.298L334.693 200.483L321.305 182.685H326.732L337.661 197.227L348.37 182.685H353.796L340.196 200.483L354.373 219.298H348.878L337.152 203.733L326.011 219.298H320.577Z" fill="#2A007C"/>
<path fill-rule="evenodd" clip-rule="evenodd" d="M359.141 233.036H363.558V214.009C366.161 218.213 370.138 220.164 375.208 220.164C386.494 220.164 391.337 210.835 391.337 200.985C391.337 191.148 386.494 181.82 375.208 181.82C369.774 181.82 366.154 183.839 363.413 188.188L363.269 182.685H358.921C359.141 186.312 359.141 189.994 359.141 193.614V233.036ZM374.699 185.502C383.375 185.502 386.638 193.175 386.638 200.985C386.638 208.802 383.382 216.468 374.699 216.468C366.525 216.468 363.558 209.743 363.558 200.985C363.558 192.234 366.525 185.502 374.699 185.502Z" fill="#2A007C"/>
<path d="M414.032 186.079C406.723 186.079 404.182 192.234 404.182 198.594V219.298H399.765V193.456C399.765 189.912 399.696 186.305 399.552 182.685H403.907L404.188 187.968C406.359 183.778 409.986 181.82 414.829 181.82C415.481 181.82 416.203 181.889 416.855 181.964V186.381L416.716 186.359L416.541 186.332C415.669 186.194 414.936 186.079 414.032 186.079Z" fill="#2A007C"/>
<path fill-rule="evenodd" clip-rule="evenodd" d="M434.193 216.825C426.163 216.825 422.261 210.025 422.261 201.782H448.948C448.948 192.014 445.836 181.82 434.186 181.82C422.68 181.82 417.542 191.155 417.542 201.644C417.542 211.914 422.467 220.164 433.609 220.164C441.928 220.164 446.633 216.248 448.591 208.582H444.394C443.308 212.704 440.409 216.825 434.193 216.825ZM444.249 198.457H422.398C423.264 189.912 427.612 185.138 433.904 185.145C440.856 185.145 444.249 191.293 444.249 198.457Z" fill="#2A007C"/>
<path d="M466.183 220.164C458.661 220.164 453.021 216.612 453.021 208.582H457.438C457.438 214.078 461.052 216.825 466.41 216.825C471.403 216.825 475.305 214.435 475.305 209.53C475.305 205.254 471.036 204.03 466.432 202.709L465.977 202.579C460.193 200.916 453.894 199.103 453.894 192.014C453.894 184.135 460.475 181.82 466.629 181.82C473.711 181.82 479.001 184.561 479.214 192.158H474.797C474.584 187.824 471.472 185.364 466.767 185.364C463.078 185.364 458.592 186.807 458.592 191.581C458.592 195.929 463.078 197.159 467.852 198.457L467.859 198.459C473.655 200.045 480.01 201.785 480.01 208.878C480.004 217.121 473.643 220.164 466.183 220.164Z" fill="#2A007C"/>
<path d="M483.624 208.582C483.624 216.612 489.263 220.164 496.792 220.164C504.245 220.164 510.612 217.121 510.626 208.878C510.626 201.789 504.271 200.047 498.485 198.462L498.468 198.457C493.687 197.159 489.201 195.929 489.201 191.581C489.201 186.807 493.687 185.364 497.376 185.364C502.081 185.364 505.193 187.824 505.406 192.158H509.823C509.61 184.561 504.32 181.82 497.238 181.82C491.083 181.82 484.503 184.135 484.503 192.014C484.503 199.103 490.795 200.916 496.579 202.579C496.733 202.623 496.886 202.667 497.039 202.711C501.642 204.031 505.914 205.256 505.914 209.53C505.914 214.435 502.012 216.825 497.018 216.825C491.654 216.825 488.04 214.078 488.04 208.582H483.624Z" fill="#2A007C"/>
</g>
<defs>
<clipPath id="clip0_2_28">
<rect width="512" height="233.036" fill="white"/>
</clipPath>
</defs>
</svg>
