<svg width="18" height="15" viewBox="0 0 18 15" fill="none" xmlns="http://www.w3.org/2000/svg">
<path d="M5.83721 6.71053C7.69314 6.71053 9.19767 5.20832 9.19767 3.35526C9.19767 1.5022 7.69314 0 5.83721 0C3.98128 0 2.47674 1.5022 2.47674 3.35526C2.47674 5.20832 3.98128 6.71053 5.83721 6.71053Z" fill="#C7CAD1"/>
<path d="M7.4186 7.5H4.25581C3.2601 7.50125 2.30552 7.89674 1.60144 8.59973C0.897359 9.30272 0.501255 10.2558 0.5 11.25V14.4079C0.5 14.5649 0.562479 14.7155 0.673693 14.8266C0.784906 14.9376 0.935744 15 1.09302 15H10.5814C10.7387 15 10.8895 14.9376 11.0007 14.8266C11.1119 14.7155 11.1744 14.5649 11.1744 14.4079V11.25C11.1732 10.2558 10.7771 9.30272 10.073 8.59973C9.3689 7.89674 8.41432 7.50125 7.4186 7.5Z" fill="#C7CAD1"/>
<path d="M12.7946 7.69263C14.4308 7.69263 15.7573 6.36822 15.7573 4.73447C15.7573 3.10073 14.4308 1.77632 12.7946 1.77632C11.1583 1.77632 9.83181 3.10073 9.83181 4.73447C9.83181 6.36822 11.1583 7.69263 12.7946 7.69263Z" fill="#C7CAD1"/>
<path d="M17.5 11.6921V14.4789C17.4988 14.6168 17.4434 14.7486 17.3458 14.846C17.2482 14.9435 17.1162 14.9988 16.9781 15H11.9651V11.25C11.9639 10.221 11.6095 9.22344 10.9609 8.42368C11.1074 8.40111 11.2555 8.39055 11.4037 8.39211H14.187C15.0645 8.39148 15.9063 8.7387 16.5275 9.35748C17.1488 9.97626 17.4985 10.816 17.5 11.6921Z" fill="#C7CAD1"/>
</svg>
