<svg width="14" height="19" viewBox="0 0 14 19" fill="none" xmlns="http://www.w3.org/2000/svg">
<path fill-rule="evenodd" clip-rule="evenodd" d="M3.5625 3.08333C3.5625 1.69112 4.69112 0.5625 6.08333 0.5625H7.91667C9.3089 0.5625 10.4375 1.69112 10.4375 3.08333V4.91667C10.4375 5.29636 10.1297 5.60417 9.75 5.60417H4.25C3.87031 5.60417 3.5625 5.29636 3.5625 4.91667V3.08333ZM6.08333 1.9375C5.45047 1.9375 4.9375 2.4505 4.9375 3.08333V4.22917H9.0625V3.08333C9.0625 2.4505 8.54953 1.9375 7.91667 1.9375H6.08333Z" fill="white"/>
<path fill-rule="evenodd" clip-rule="evenodd" d="M1.94635 3.01804C2.06224 2.96248 2.1909 3.05091 2.19067 3.17943L2.1875 4.91668C2.1875 6.05576 3.11091 6.97918 4.25 6.97918H9.75C10.889 6.97918 11.8125 6.05576 11.8125 4.91668V3.17891C11.8125 3.05053 11.9411 2.96233 12.0568 3.01784C13.1431 3.53863 13.875 4.64789 13.875 5.91167V15.527C13.875 17.0952 12.7069 18.4178 11.1507 18.6116C8.39425 18.9549 5.60575 18.9549 2.84931 18.6116C1.29312 18.4178 0.125 17.0952 0.125 15.527V5.91166C0.125 4.64806 0.859809 3.53893 1.94635 3.01804ZM9.75 9.5C10.1297 9.5 10.4375 9.80782 10.4375 10.1875C10.4375 10.5672 10.1297 10.875 9.75 10.875H4.25C3.87031 10.875 3.5625 10.5672 3.5625 10.1875C3.5625 9.80782 3.87031 9.5 4.25 9.5H9.75ZM8.83333 12.25C9.21302 12.25 9.52083 12.5578 9.52083 12.9375C9.52083 13.3172 9.21302 13.625 8.83333 13.625H4.25C3.87031 13.625 3.5625 13.3172 3.5625 12.9375C3.5625 12.5578 3.87031 12.25 4.25 12.25H8.83333Z" fill="white"/>
</svg>
