<svg width="16" height="17" viewBox="0 0 16 17" fill="none" xmlns="http://www.w3.org/2000/svg">
<path d="M16 11.1662H14.9333V8.49969C14.9333 6.66092 14.2029 4.89747 12.9026 3.59727C11.6024 2.29707 9.83883 1.56662 8 1.56662C6.16117 1.56662 4.39764 2.29707 3.09739 3.59727C1.79714 4.89747 1.06667 6.66092 1.06667 8.49969V11.1662H0V8.49969C3.16163e-08 6.37804 0.842855 4.34329 2.34315 2.84305C3.84344 1.34282 5.87827 0.5 8 0.5C10.1217 0.5 12.1566 1.34282 13.6569 2.84305C15.1571 4.34329 16 6.37804 16 8.49969V11.1662Z" fill="#C7CAD1"/>
<path d="M3.32267 14.3661H2.66667C2.31647 14.3661 1.96971 14.2972 1.64618 14.1631C1.32264 14.0291 1.02867 13.8327 0.781049 13.5851C0.280952 13.085 0 12.4068 0 11.6996V10.6329C0 9.92572 0.280952 9.24747 0.781049 8.74739C1.28115 8.24731 1.95942 7.96637 2.66667 7.96637H3.32267C3.57449 7.97057 3.81458 8.07356 3.99117 8.25313C4.16776 8.43271 4.2667 8.67449 4.26667 8.92634V13.4062C4.2667 13.658 4.16776 13.8998 3.99117 14.0794C3.81458 14.2589 3.57449 14.3619 3.32267 14.3661ZM2.66667 9.033C2.24232 9.033 1.83535 9.20156 1.5353 9.50161C1.23524 9.80166 1.06667 10.2086 1.06667 10.6329V11.6996C1.06667 12.1239 1.23524 12.5308 1.5353 12.8309C1.83535 13.1309 2.24232 13.2995 2.66667 13.2995H3.2V9.033H2.66667ZM13.3333 14.3661H12.6933C12.4387 14.3661 12.1945 14.265 12.0145 14.085C11.8345 13.9049 11.7333 13.6608 11.7333 13.4062V8.92634C11.7333 8.67174 11.8345 8.42757 12.0145 8.24754C12.1945 8.06751 12.4387 7.96637 12.6933 7.96637H13.3333C14.0406 7.96637 14.7189 8.24731 15.219 8.74739C15.719 9.24747 16 9.92572 16 10.6329V11.6996C16 12.4068 15.719 13.085 15.219 13.5851C14.7189 14.0852 14.0406 14.3661 13.3333 14.3661ZM12.8 13.2995H13.3333C13.7577 13.2995 14.1646 13.1309 14.4647 12.8309C14.7648 12.5308 14.9333 12.1239 14.9333 11.6996V10.6329C14.9333 10.2086 14.7648 9.80166 14.4647 9.50161C14.1646 9.20156 13.7577 9.033 13.3333 9.033H12.8V13.2995Z" fill="#C7CAD1"/>
<path d="M2.66667 8.49969H3.32267C3.43583 8.49969 3.54435 8.54464 3.62437 8.62465C3.70438 8.70466 3.74933 8.81318 3.74933 8.92634V13.4062C3.74933 13.5193 3.70438 13.6278 3.62437 13.7078C3.54435 13.7879 3.43583 13.8328 3.32267 13.8328H2.66667C2.10087 13.8328 1.55825 13.6081 1.15817 13.208C0.758095 12.8079 0.533333 12.2653 0.533333 11.6996V10.6329C0.533333 10.0672 0.758095 9.52456 1.15817 9.1245C1.55825 8.72444 2.10087 8.49969 2.66667 8.49969Z" fill="#C7CAD1"/>
<path d="M13.3333 13.8328H12.6933C12.5802 13.8328 12.4716 13.7879 12.3916 13.7078C12.3116 13.6278 12.2667 13.5193 12.2667 13.4062V8.92634C12.2667 8.81318 12.3116 8.70466 12.3916 8.62465C12.4716 8.54464 12.5802 8.49969 12.6933 8.49969H13.3333C13.8991 8.49969 14.4417 8.72444 14.8418 9.1245C15.2419 9.52456 15.4667 10.0672 15.4667 10.6329V11.6996C15.4667 12.2653 15.2419 12.8079 14.8418 13.208C14.4417 13.6081 13.8991 13.8328 13.3333 13.8328Z" fill="#C7CAD1"/>
<path d="M12.208 16.4994H8.53333C8.39188 16.4994 8.25623 16.4432 8.15621 16.3432C8.05619 16.2432 8 16.1075 8 15.9661C8 15.8246 8.05619 15.689 8.15621 15.589C8.25623 15.4889 8.39188 15.4327 8.53333 15.4327H12.2667C12.4081 15.4327 12.5438 15.3766 12.6438 15.2765C12.7438 15.1765 12.8 15.0409 12.8 14.8994V13.8328H13.8667V14.8994C13.8677 15.161 13.8045 15.4189 13.6827 15.6504C13.5609 15.8819 13.3841 16.08 13.168 16.2274C12.8832 16.4138 12.5482 16.5087 12.208 16.4994Z" fill="#C7CAD1"/>
</svg>
