<svg width="432" height="512" viewBox="0 0 432 512" fill="none" xmlns="http://www.w3.org/2000/svg">
<path fill-rule="evenodd" clip-rule="evenodd" d="M14.7146 154.763L16.5463 362.668L63.2564 420.369L203.392 494.555L375.579 410.293L411.299 325.116L407.635 49.4301L277.578 45.7664L142.028 67.7478L18.3835 139.186L14.7146 154.763Z" fill="#301506"/>
<path d="M215.352 4.51963C133.727 4.51963 62.5264 20.3227 3.71735 51.4868V300.634C3.71735 353.059 23.4154 396.898 60.6719 427.439C95.2642 455.815 202.247 502.577 215.357 508.256C227.789 502.845 336.039 455.36 370.082 427.439C407.318 396.915 427.021 353.063 427.021 300.634V51.4868C368.204 20.3185 297.004 4.5155 215.345 4.5155L215.352 4.51963ZM336.217 52.7614C360.559 53.0797 384.46 54.5834 407.564 56.7305V300.632C407.564 347.503 390.556 385.364 357.741 412.394C328.425 436.536 240.023 476.143 215.357 487.016C190.359 475.996 101.737 435.889 72.9475 412.404C40.3262 385.837 23.1552 347.077 23.1552 300.642V158.126C116.899 72.1552 230.734 51.3874 336.209 52.767L336.217 52.7614ZM220.871 166.332C200.787 166.332 184.582 170.821 171.241 179.433V419.402H208.076V341.876C211.752 342.96 217.088 343.973 224.647 343.973C265.507 343.973 288.991 307.14 288.991 253.36C288.991 199.685 264.809 166.332 220.871 166.332L220.871 166.332ZM346.733 166.332C322.508 167.034 297.175 184.582 297.329 214.331C297.391 233.92 302.821 248.569 333.18 266.382C349.381 275.891 355.908 282.158 356.188 293.713C356.497 306.559 347.622 314.304 334.116 314.252C322.364 314.159 308.317 307.638 298.91 299.263V333.162C310.444 340.039 324.836 344.585 339.375 344.585C375.764 344.585 392.013 318.88 392.716 295.326C393.407 273.858 387.475 257.613 356.703 239.533C342.969 231.479 332.124 226.185 332.486 212.782C332.847 199.698 343.709 195.102 354.138 195.195C367.004 195.309 379.45 202.434 387.133 210.313V178.303C380.658 173.315 366.951 165.711 346.732 166.331L346.733 166.332ZM41.9651 170.059V285.81C41.9651 324.833 60.424 344.588 96.8544 344.588C119.397 344.588 138.277 339.37 152.341 329.808V170.06H115.587V308.85C111.58 311.597 105.637 313.352 98.1613 313.352C81.2885 313.352 78.7673 297.879 78.7673 287.44V170.061H41.9643L41.9651 170.059ZM221.118 195.987C242.483 195.987 251.338 213.044 251.338 254.297C251.338 294.548 241.211 313.995 220.021 313.995C215.034 313.995 210.699 312.76 208.065 311.769V198.653C211.05 197.166 216.12 195.99 221.118 195.99V195.987Z" fill="#FAB80A"/>
</svg>
