<svg xmlns="http://www.w3.org/2000/svg" width="64.848" height="86.966" viewBox="0 0 64.848 86.966">
  <g id="icon-advanced_analytics" data-name="icon-advanced analytics" transform="translate(0 0)">
    <path id="Path_17388" data-name="Path 17388" d="M186.965,679.516l.019,6.579,3.123-1.8-.019-6.579Z" transform="translate(-165.286 -599.129)" fill="#ff9f00"/>
    <path id="Path_17389" data-name="Path 17389" d="M131.241,667.449l6.464,3.756-.019-6.579-6.464-3.756Z" transform="translate(-116.007 -584.24)"/>
    <path id="Path_17390" data-name="Path 17390" d="M297.816,615.522l.019,6.579-3.122,1.8-.019-6.579Z" transform="translate(-260.523 -544.149)" fill="#ff9f00"/>
    <path id="Path_17391" data-name="Path 17391" d="M245.434,609.008l-6.464-3.756-.019-6.579,6.464,3.756Z" transform="translate(-211.244 -529.254)"/>
    <path id="Path_17392" data-name="Path 17392" d="M515.166,230.6l.01,3.587-5.725,3.306-.01-3.587Z" transform="translate(-450.369 -203.865)" fill="#3264ff"/>
    <path id="Path_17393" data-name="Path 17393" d="M460.162,205.272l-6.464-3.756,5.725-3.305,6.464,3.756Z" transform="translate(-401.09 -175.227)" fill="#fff"/>
    <path id="Path_17394" data-name="Path 17394" d="M514.815,106.815l.01,3.589-5.725,3.305-.01-3.589Z" transform="translate(-450.059 -94.429)" fill="#3264ff"/>
    <path id="Path_17395" data-name="Path 17395" d="M459.811,81.483l-6.464-3.756,5.725-3.306,6.464,3.756Z" transform="translate(-400.78 -65.791)" fill="#fff"/>
    <path id="Path_17396" data-name="Path 17396" d="M509.792,357.687l.01,3.589,5.725-3.305-.01-3.589Z" transform="translate(-450.679 -313.289)" fill="#3264ff"/>
    <path id="Path_17397" data-name="Path 17397" d="M454.049,325.293l6.464,3.756,5.725-3.305-6.463-3.756Z" transform="translate(-401.4 -284.652)" fill="#fff"/>
    <path id="Path_17398" data-name="Path 17398" d="M405.536,553.324l.019,6.579-3.123,1.8-.019-6.579Z" transform="translate(-355.752 -489.164)" fill="#ff9f00"/>
    <path id="Path_17399" data-name="Path 17399" d="M353.153,546.816l-6.464-3.756-.019-6.579,6.464,3.756Z" transform="translate(-306.473 -474.274)"/>
    <path id="Path_17400" data-name="Path 17400" d="M418.659,127.741l-6.464-3.756-.122-42.862,6.464,3.756Z" transform="translate(-364.292 -71.716)" fill="#3264ff"/>
    <path id="Path_17401" data-name="Path 17401" d="M146.3,207.016l-.114-40.322,35.091-20.26.114,40.322Z" transform="translate(-129.234 -129.455)" fill="#ff9f00"/>
    <path id="Path_17402" data-name="Path 17402" d="M55.576,40.89l-6.464-3.756L95.954,10.089l6.464,3.756Z" transform="translate(-43.417 -8.919)" fill="#ff9f00"/>
    <path id="Path_17403" data-name="Path 17403" d="M104.854,69.528,151.7,42.484l.153,53.825-9.368,5.409-3.123,1.8-9.368,5.409-3.122,1.8-9.368,5.409-3.123,1.8-9.368,5.409-.031-10.765-.01-3.589-.03-10.765-.01-3.587-.031-10.765-.01-3.589Zm42.209,24.054-.122-42.862-37.3,21.537.122,42.862,37.3-21.537" transform="translate(-92.696 -37.558)" fill="#3264ff"/>
    <path id="Path_17404" data-name="Path 17404" d="M183.424,113.516l.122,42.862-2.211,1.277-.114-40.322L146.13,137.593l-.007-2.541Z" transform="translate(-129.179 -100.354)" fill="#280a38"/>
    <path id="Path_17405" data-name="Path 17405" d="M55.606,300.9l-6.464-3.756-.031-53.825,6.464,3.756Z" transform="translate(-43.417 -215.108)" fill="#3264ff"/>
    <path id="Path_17406" data-name="Path 17406" d="M.7,587.033l6.464,3.756,5.725-3.306-6.464-3.756Z" transform="translate(-0.621 -516.042)" fill="#fff"/>
    <path id="Path_17407" data-name="Path 17407" d="M.712,615.823l6.464,3.756-.01-3.589L.7,612.234Z" transform="translate(-0.621 -541.243)"/>
    <path id="Path_17408" data-name="Path 17408" d="M62.17,616.122l.01,3.589-5.725,3.306-.01-3.589Z" transform="translate(-49.9 -544.68)" fill="#ff9f00"/>
    <path id="Path_17409" data-name="Path 17409" d="M.351,463.256l6.464,3.756,5.725-3.305L6.076,459.95Z" transform="translate(-0.31 -406.617)" fill="#fff"/>
    <path id="Path_17410" data-name="Path 17410" d="M.361,492.045,6.825,495.8l-.01-3.587L.351,488.458Z" transform="translate(-0.311 -431.819)"/>
    <path id="Path_17411" data-name="Path 17411" d="M61.819,492.344l.01,3.587L56.1,499.237l-.01-3.587Z" transform="translate(-49.59 -435.255)" fill="#ff9f00"/>
    <path id="Path_17412" data-name="Path 17412" d="M0,339.466l6.464,3.756,5.725-3.306-6.464-3.756Z" transform="translate(0 -297.181)" fill="#fff"/>
    <path id="Path_17413" data-name="Path 17413" d="M61.468,368.555l.01,3.589-5.725,3.306-.01-3.589Z" transform="translate(-49.279 -325.82)" fill="#ff9f00"/>
    <path id="Path_17414" data-name="Path 17414" d="M.01,368.257l6.464,3.756-.01-3.589L0,364.668Z" transform="translate(0 -322.383)"/>
    <path id="Path_17415" data-name="Path 17415" d="M348.317,0l-3.123,1.8,6.463,3.756,3.123-1.8Z" transform="translate(-305.167)" fill="#fff"/>
    <path id="Path_17416" data-name="Path 17416" d="M351.676,25.886l-6.464-3.756-.019-6.579,6.463,3.756Z" transform="translate(-305.167 -13.748)"/>
    <path id="Path_17417" data-name="Path 17417" d="M404.059,32.394l.019,6.579-3.123,1.8-.019-6.579Z" transform="translate(-354.446 -28.638)" fill="#3264ff"/>
    <path id="Path_17418" data-name="Path 17418" d="M243.939,67.756,237.475,64l3.122-1.8,6.464,3.756Z" transform="translate(-209.939 -54.985)" fill="#fff"/>
    <path id="Path_17419" data-name="Path 17419" d="M296.339,94.592l.019,6.579-3.122,1.8-.019-6.579Z" transform="translate(-259.218 -83.623)" fill="#3264ff"/>
    <path id="Path_17420" data-name="Path 17420" d="M243.957,88.078l-6.463-3.756-.019-6.579,6.464,3.756Z" transform="translate(-209.939 -68.728)"/>
    <path id="Path_17421" data-name="Path 17421" d="M188.611,156.783l.019,6.579-3.123,1.8-.019-6.579Z" transform="translate(-163.98 -138.603)" fill="#3264ff"/>
    <path id="Path_17422" data-name="Path 17422" d="M136.21,129.948l-6.464-3.756,3.123-1.8,6.464,3.756Z" transform="translate(-114.702 -109.965)" fill="#fff"/>
    <path id="Path_17423" data-name="Path 17423" d="M136.228,150.275l-6.464-3.756-.019-6.579,6.464,3.756Z" transform="translate(-114.701 -123.713)"/>
  </g>
</svg>
