<svg id="icon-last_mile_excellence" data-name="icon-last mile excellence" xmlns="http://www.w3.org/2000/svg" xmlns:xlink="http://www.w3.org/1999/xlink" width="74.453" height="87.442" viewBox="0 0 74.453 87.442">
  <defs>
    <clipPath id="clip-path">
      <rect id="Rectangle_14123" data-name="Rectangle 14123" width="74.453" height="87.442" fill="none"/>
    </clipPath>
  </defs>
  <path id="Path_17330" data-name="Path 17330" d="M0,251.781,43.358,276.9l25.381-15.043L25.962,236.812Z" transform="translate(0 -205.81)" fill="#280a38"/>
  <path id="Path_17331" data-name="Path 17331" d="M116.658,352.992l7.272-4.226,3.972-3.649-7.272,4.226Z" transform="translate(-101.386 -299.935)" fill="#280a38"/>
  <g id="Group_48146" data-name="Group 48146">
    <g id="Group_48145" data-name="Group 48145" clip-path="url(#clip-path)">
      <path id="Path_17332" data-name="Path 17332" d="M26.067,104.766a8.954,8.954,0,0,1,4.062,7.036l-.052,18.281c-.007,2.587-1.838,3.63-4.089,2.331l-5.95-3.436a.657.657,0,0,0-.794-.008l-3.972,3.649a.219.219,0,0,1-.266,0,.7.7,0,0,1-.265-.3L10.8,124.1a2.116,2.116,0,0,0-.791-.907l-5.95-3.435A8.953,8.953,0,0,1,0,112.718L.053,94.437c.007-2.586,1.838-3.63,4.089-2.33Z" transform="translate(-0.001 -79.563)" fill="#ff9f00"/>
      <path id="Path_17333" data-name="Path 17333" d="M66.178,183.426l-1.758,5.152-5.634-3.253,4.547,6.437-1.758,5.153,4.569-1.174,4.547,6.437-1.724-7.163,4.569-1.174L67.9,190.588Z" transform="translate(-51.089 -159.413)" fill="#fff"/>
      <path id="Path_17334" data-name="Path 17334" d="M30.442.275a2.875,2.875,0,0,1,2.9.284L55.268,13.217a8.325,8.325,0,0,1,2.888,3.054L37.192,28.256A8.324,8.324,0,0,0,34.3,25.2L12.378,12.544a2.875,2.875,0,0,0-2.9-.284Z" transform="translate(-8.237 0)" fill="#fff"/>
      <path id="Path_17335" data-name="Path 17335" d="M241.691,124.289a8.242,8.242,0,0,1,1.174,3.983l-.052,18.281a2.854,2.854,0,0,1-1.189,2.615L220.66,161.152a2.854,2.854,0,0,0,1.189-2.615l.052-18.281a8.242,8.242,0,0,0-1.174-3.983Z" transform="translate(-191.772 -108.018)" fill="#280a38"/>
      <path id="Path_17336" data-name="Path 17336" d="M126.654,472.951l-6.328,3.654v-5.521l6.328-3.654Z" transform="translate(-104.573 -406.236)" fill="#280a38" fill-rule="evenodd"/>
      <path id="Path_17337" data-name="Path 17337" d="M347.323,600.2l-6.328,3.654v-5.521l6.328-3.654Z" transform="translate(-296.353 -516.823)" fill="#280a38" fill-rule="evenodd"/>
      <path id="Path_17338" data-name="Path 17338" d="M54.758,430.311a15.473,15.473,0,0,0-6.562-9.246c-3.061-1.767-5.519-.871-6.568,1.662Z" transform="translate(-36.178 -365.14)" fill="#280a38" fill-rule="evenodd"/>
      <path id="Path_17339" data-name="Path 17339" d="M56.5,448.643a11.753,11.753,0,0,1-5.317-9.181c0-3.366,2.388-4.732,5.317-3.041a11.753,11.753,0,0,1,5.317,9.181c0,3.366-2.388,4.732-5.317,3.042" transform="translate(-44.487 -378.656)" fill="#280a38" fill-rule="evenodd"/>
      <path id="Path_17340" data-name="Path 17340" d="M71.661,465.509a6.706,6.706,0,0,1-3.033-5.238c0-1.92,1.363-2.7,3.033-1.735a6.706,6.706,0,0,1,3.033,5.238c0,1.921-1.363,2.7-3.033,1.735" transform="translate(-59.644 -398.146)" fill="#eae7eb" fill-rule="evenodd"/>
      <path id="Path_17341" data-name="Path 17341" d="M83.657,478.856a2.711,2.711,0,0,1-1.226-2.118c0-.776.551-1.092,1.226-.7a2.711,2.711,0,0,1,1.227,2.118c0,.776-.551,1.092-1.227.7" transform="translate(-71.639 -413.57)" fill="#280a38" fill-rule="evenodd"/>
      <path id="Path_17342" data-name="Path 17342" d="M521.985,403.794l-.577.349a1.133,1.133,0,0,0-.1.071v-.109a.6.6,0,0,0-.262-.553.7.7,0,0,0-.71.094l-.688.408a.191.191,0,1,0,.2.329l.688-.408c.176-.1.284-.115.325-.091s.069.11.069.22v4.139a.771.771,0,0,1-.311.595c-.186.107-.968.573-.968.573l.2.329s.778-.463.964-.571a1.153,1.153,0,0,0,.5-.926V408.2a.233.233,0,0,0,.1,0s.42-.23.577-.349.3-.206.3-.387v-3.441a.235.235,0,0,0-.3-.227" transform="translate(-451.532 -350.667)" fill="#280a38" fill-rule="evenodd"/>
      <path id="Path_17343" data-name="Path 17343" d="M268.995,291.56l-7.318-4.167a1.092,1.092,0,0,0-1.185-.077c-.258.178-19.979,11.468-19.979,11.468l21.5,33.046s19.737-11.428,20.017-11.545a1.064,1.064,0,0,0,.556-1.07v-3.588c0-3.967-10.085-22.659-13.6-24.067" transform="translate(-209.026 -249.579)" fill="#fff" fill-rule="evenodd"/>
      <path id="Path_17344" data-name="Path 17344" d="M74.453,377.225c0-.339,0-1.179,0-1.409a.417.417,0,0,0-.1-.314L54.544,386.654a.382.382,0,0,1-.378,0l-.6-.351s0,0,0,0v-3.588c0-3.939-9.764-21.929-13.019-23.739l-7.894-4.5c-.88-.508-1.6-.1-1.6.915v13.742L0,351.151v8.4L51.915,389.64l1.643-.969.651.376a.467.467,0,0,0,.476.012l19.644-11.39c.142-.083.123-.284.123-.444" transform="translate(-0.001 -305.18)" fill="#ff6429" fill-rule="evenodd"/>
      <path id="Path_17345" data-name="Path 17345" d="M263.125,411.209c.307.239,1.193-.131.965-.912-.316-1.083-6.292-12.7-8.211-13.662-.15-.1-8.963-5.078-8.963-5.078-.035-.02-.064,0-.064.037v10.231a.141.141,0,0,0,.064.111Z" transform="translate(-214.535 -340.288)" fill="#fff" fill-rule="evenodd"/>
      <path id="Path_17346" data-name="Path 17346" d="M429.922,534.117l-19.99,11.262-.8-.464,20-11.256Z" transform="translate(-355.567 -463.795)" fill="#fff" fill-rule="evenodd"/>
      <path id="Path_17347" data-name="Path 17347" d="M348.872,503.439l-.464.264a.217.217,0,0,1-.184.037c-.036-.021-.059-.088-.059-.175v-4.138a.974.974,0,0,1,.433-.749l.463-.263a.192.192,0,0,0-.189-.333l-.464.264a1.362,1.362,0,0,0-.626,1.081v.052a.234.234,0,0,0-.1,0l-.633.171a.4.4,0,0,0-.3.387v3.441a.235.235,0,0,0,.3.227l.633-.171a.4.4,0,0,0,.1-.046v.074a.559.559,0,0,0,.25.507.461.461,0,0,0,.233.06.673.673,0,0,0,.333-.1l.463-.263a.192.192,0,1,0-.189-.333" transform="translate(-301.353 -432.852)" fill="#280a38" fill-rule="evenodd"/>
      <path id="Path_17348" data-name="Path 17348" d="M466.708,538.406l-7.27,4.085V540a1.842,1.842,0,0,1,.921-1.6l5.55-3.2a.533.533,0,0,1,.8.462Z" transform="translate(-399.29 -465.08)" fill="#ff6429" fill-rule="evenodd"/>
      <path id="Path_17349" data-name="Path 17349" d="M427.063,568.526l-2.9,1.672V567.7l2.531-1.461a.365.365,0,0,1,.548.316v1.652a.365.365,0,0,1-.182.316" transform="translate(-368.637 -492.069)" fill="#280a38" fill-rule="evenodd"/>
      <path id="Path_17350" data-name="Path 17350" d="M417.127,580.228l-.522.306a.365.365,0,0,1-.539-.321v-1.665a.365.365,0,0,1,.192-.321l.869-.493Z" transform="translate(-361.596 -502.099)" fill="#ff6429" fill-rule="evenodd"/>
      <path id="Path_17351" data-name="Path 17351" d="M527.612,510.513l-2.552,1.474a.351.351,0,0,1-.526-.3V510a.351.351,0,0,1,.175-.3l2.9-1.676Z" transform="translate(-455.864 -441.51)" fill="#280a38" fill-rule="evenodd"/>
      <path id="Path_17352" data-name="Path 17352" d="M548.932,507.642l-.885.51v-2.495l.535-.308a.351.351,0,0,1,.526.3v1.686a.35.35,0,0,1-.176.3" transform="translate(-476.299 -439.149)" fill="#ff6429" fill-rule="evenodd"/>
      <path id="Path_17353" data-name="Path 17353" d="M365.569,364.626a84.5,84.5,0,0,0-6.527-11.538c-.829-1.024-1.164-1.272-1.639-1.03l-16.9,9.728a.761.761,0,0,0-.247,1.094,95.744,95.744,0,0,1,6.88,12.024.863.863,0,0,0,1.209.373l16.643-9.579c.189-.109.844-.352.583-1.071" transform="translate(-295.591 -305.893)" fill="#ff6429" fill-rule="evenodd"/>
      <path id="Path_17354" data-name="Path 17354" d="M274.571,557.805a15.466,15.466,0,0,0-6.541-9.159c-3.037-1.753-5.615-.991-6.546,1.6Z" transform="translate(-227.252 -475.996)" fill="#280a38" fill-rule="evenodd"/>
      <path id="Path_17355" data-name="Path 17355" d="M276.188,564.157c-2.936-1.7-5.317-.333-5.317,3.042a11.725,11.725,0,0,0,5.317,9.18c2.936,1.7,5.317.334,5.317-3.041a11.725,11.725,0,0,0-5.317-9.181" transform="translate(-235.41 -489.666)" fill="#280a38" fill-rule="evenodd"/>
      <path id="Path_17356" data-name="Path 17356" d="M291.344,593.268a6.706,6.706,0,0,1-3.033-5.238c0-1.92,1.363-2.7,3.033-1.735a6.706,6.706,0,0,1,3.033,5.238c0,1.92-1.363,2.7-3.033,1.735" transform="translate(-250.566 -509.179)" fill="#eae7eb" fill-rule="evenodd"/>
      <path id="Path_17357" data-name="Path 17357" d="M303.34,606.615a2.711,2.711,0,0,1-1.226-2.118c0-.776.551-1.092,1.226-.7a2.712,2.712,0,0,1,1.227,2.118c0,.776-.551,1.092-1.227.7" transform="translate(-262.562 -524.603)" fill="#280a38" fill-rule="evenodd"/>
    </g>
  </g>
</svg>
