<svg id="icon-customer_experience" data-name="icon-customer experience" xmlns="http://www.w3.org/2000/svg" xmlns:xlink="http://www.w3.org/1999/xlink" width="62.557" height="75.885" viewBox="0 0 62.557 75.885">
  <defs>
    <clipPath id="clip-path">
      <rect id="Rectangle_14124" data-name="Rectangle 14124" width="62.557" height="75.885" fill="none"/>
    </clipPath>
  </defs>
  <path id="Path_17358" data-name="Path 17358" d="M.046,371.315l10.58,6.148-.045-15.882L0,355.433Z" transform="translate(-0.001 -301.579)" fill="#280a38"/>
  <g id="Group_48149" data-name="Group 48149">
    <g id="Group_48148" data-name="Group 48148" clip-path="url(#clip-path)">
      <path id="Path_17359" data-name="Path 17359" d="M128.181,140.355l10.58,6.149c-3.2-1.858-7.624-1.6-12.511,1.225l-10.58-6.148c4.886-2.821,9.314-3.083,12.511-1.225" transform="translate(-98.144 -118.082)" fill="#280a38"/>
      <path id="Path_17360" data-name="Path 17360" d="M87.354,182.16c9.71-5.606,17.608-1.106,17.64,10.053l.045,15.882L69.873,228.4l-.045-15.882c-.032-11.159,7.815-24.749,17.526-30.356" transform="translate(-59.248 -152.513)" fill="#3264ff"/>
      <path id="Path_17361" data-name="Path 17361" d="M10.581,191.59,0,185.442c-.032-11.159,7.815-24.749,17.526-30.356l10.58,6.148c-9.711,5.607-17.557,19.2-17.526,30.356" transform="translate(0 -131.588)" fill="#14b4ef"/>
      <path id="Path_17362" data-name="Path 17362" d="M75.54,15.484A15.485,15.485,0,1,1,60.055,0,15.485,15.485,0,0,1,75.54,15.484" transform="translate(-37.817 0.001)" fill="#ff9f00"/>
      <path id="Path_17363" data-name="Path 17363" d="M262.5,371.143l-6.677-3.881-3.647-3.351,6.678,3.881Z" transform="translate(-213.966 -308.773)" fill="#280a38"/>
      <path id="Path_17364" data-name="Path 17364" d="M254.145,163.244c2.067-1.193,3.748-.235,3.755,2.14l.048,16.787a8.221,8.221,0,0,1-3.731,6.461l-5.463,3.154a1.944,1.944,0,0,0-.726.833l-3.616,7.544a.646.646,0,0,1-.243.279.2.2,0,0,1-.244,0l-3.647-3.351a.6.6,0,0,0-.729.007l-5.464,3.155c-2.067,1.193-3.748.235-3.754-2.14l-.048-16.786a8.222,8.222,0,0,1,3.73-6.461Z" transform="translate(-195.39 -138.075)" fill="#f0324e"/>
      <path id="Path_17365" data-name="Path 17365" d="M288.916,236.8c3.013-1.74,4.53,1.652,2.419,5.341l-5.064,8.848a.806.806,0,0,1-.282.3.279.279,0,0,1-.283.027l-5.1-2.982c-2.135-1.248-.623-6.378,2.38-8.112a2.416,2.416,0,0,1,2.968.1,8.848,8.848,0,0,1,2.958-3.524" transform="translate(-237.244 -200.525)" fill="#fff"/>
      <path id="Path_17366" data-name="Path 17366" d="M218.775,137.371a2.64,2.64,0,0,0-2.663.261l-20.133,11.624a7.643,7.643,0,0,0-2.652,2.8l6.678,3.88a7.642,7.642,0,0,1,2.652-2.8l20.133-11.624a2.64,2.64,0,0,1,2.663-.261Z" transform="translate(-164.035 -116.343)" fill="#ff9f00"/>
      <path id="Path_17367" data-name="Path 17367" d="M187.288,235.73a7.569,7.569,0,0,0-1.078,3.657l.048,16.786a2.62,2.62,0,0,0,1.092,2.4l6.678,3.88a2.62,2.62,0,0,1-1.092-2.4l-.048-16.787a7.568,7.568,0,0,1,1.078-3.657Z" transform="translate(-157.996 -200.013)" fill="#280a38"/>
    </g>
  </g>
</svg>
