<svg id="icon-workforce_empowerment" data-name="icon-workforce empowerment" xmlns="http://www.w3.org/2000/svg" xmlns:xlink="http://www.w3.org/1999/xlink" width="89.153" height="104.944" viewBox="0 0 89.153 104.944">
  <defs>
    <clipPath id="clip-path">
      <rect id="Rectangle_14125" data-name="Rectangle 14125" width="89.153" height="104.944" fill="none"/>
    </clipPath>
  </defs>
  <path id="Path_17368" data-name="Path 17368" d="M.031,554.944l7.211,4.191L7.211,548.31,0,544.119Z" transform="translate(0 -463.257)" fill="#280a38"/>
  <g id="Group_48152" data-name="Group 48152">
    <g id="Group_48151" data-name="Group 48151" clip-path="url(#clip-path)">
      <path id="Path_17369" data-name="Path 17369" d="M88.9,394.651l7.211,4.191c-2.179-1.266-5.2-1.088-8.527.835l-7.211-4.191c3.33-1.923,6.348-2.1,8.527-.835" transform="translate(-68.431 -335.313)" fill="#280a38"/>
      <path id="Path_17370" data-name="Path 17370" d="M60.466,423.684c6.618-3.821,12-.753,12.022,6.852l.031,10.825L48.552,455.2l-.031-10.825c-.022-7.6,5.326-16.868,11.945-20.689" transform="translate(-41.311 -359.321)" fill="#b066ff"/>
      <path id="Path_17371" data-name="Path 17371" d="M7.211,429.783,0,425.593c-.022-7.605,5.326-16.868,11.945-20.689l7.211,4.191c-6.619,3.821-11.966,13.084-11.945,20.689" transform="translate(0 -344.731)" fill="#fff"/>
    </g>
  </g>
  <path id="Path_17372" data-name="Path 17372" d="M397.147,391.19,389.937,387l-.031-10.825,7.211,4.191Z" transform="translate(-331.962 -320.271)" fill="#280a38"/>
  <g id="Group_48154" data-name="Group 48154">
    <g id="Group_48153" data-name="Group 48153" clip-path="url(#clip-path)">
      <path id="Path_17373" data-name="Path 17373" d="M478.808,226.708l7.211,4.191c-2.179-1.266-5.2-1.088-8.527.835l-7.211-4.191c3.33-1.923,6.348-2.1,8.527-.835" transform="translate(-400.392 -192.329)" fill="#280a38"/>
      <path id="Path_17374" data-name="Path 17374" d="M450.371,255.741c6.618-3.821,12-.753,12.022,6.851l.031,10.825-23.967,13.838-.031-10.825c-.022-7.6,5.326-16.867,11.945-20.689" transform="translate(-373.272 -216.336)" fill="#b066ff"/>
      <path id="Path_17375" data-name="Path 17375" d="M397.116,261.839l-7.211-4.19c-.022-7.6,5.326-16.868,11.945-20.689l7.211,4.191c-6.619,3.821-11.966,13.084-11.945,20.689" transform="translate(-331.96 -201.745)" fill="#fff"/>
    </g>
  </g>
  <path id="Path_17376" data-name="Path 17376" d="M186.027,556.745l7.211,4.191-.035-21.16-7.211-4.19Z" transform="translate(-158.351 -455.991)" fill="#280a38"/>
  <g id="Group_48156" data-name="Group 48156">
    <g id="Group_48155" data-name="Group 48155" clip-path="url(#clip-path)">
      <path id="Path_17377" data-name="Path 17377" d="M288.357,363.485l7.211,4.191c-2.509-1.458-5.983-1.252-9.818.961l-7.211-4.191c3.835-2.214,7.309-2.419,9.818-.961" transform="translate(-237.145 -308.674)" fill="#280a38"/>
      <path id="Path_17378" data-name="Path 17378" d="M248.267,392.644c7.62-4.4,13.818-.868,13.843,7.889l.035,21.16-27.6,15.933-.035-21.16c-.025-8.757,6.133-19.422,13.754-23.822" transform="translate(-199.662 -332.682)" fill="#b066ff"/>
      <path id="Path_17379" data-name="Path 17379" d="M193.2,403.3l-7.211-4.191c-.025-8.757,6.133-19.422,13.753-23.822l7.211,4.191c-7.621,4.4-13.778,15.065-13.754,23.822" transform="translate(-158.351 -319.517)" fill="#fff"/>
      <path id="Path_17380" data-name="Path 17380" d="M52.078,307.691a10.554,10.554,0,1,1-10.554-10.554,10.554,10.554,0,0,1,10.554,10.554" transform="translate(-26.368 -252.979)" fill="#ff9f00"/>
      <path id="Path_17381" data-name="Path 17381" d="M441.983,139.748a10.554,10.554,0,1,1-10.554-10.554,10.554,10.554,0,0,1,10.554,10.554" transform="translate(-358.328 -109.994)" fill="#ff9f00"/>
      <path id="Path_17382" data-name="Path 17382" d="M252.071,266.221a11.579,11.579,0,1,1-11.579-11.579,11.579,11.579,0,0,1,11.579,11.579" transform="translate(-194.893 -216.799)" fill="#ff9f00"/>
      <path id="Path_17383" data-name="Path 17383" d="M145.49,230.292l-6.218-3.614-3.4-3.12,6.218,3.614Z" transform="translate(-115.683 -190.335)" fill="#280a38"/>
      <path id="Path_17384" data-name="Path 17384" d="M137.312,33.026c1.925-1.111,3.49-.219,3.5,1.993l.044,15.632a7.656,7.656,0,0,1-3.474,6.017l-5.088,2.937a1.811,1.811,0,0,0-.676.775l-3.368,7.026a.6.6,0,0,1-.227.259.187.187,0,0,1-.227,0l-3.4-3.121a.562.562,0,0,0-.679.007l-5.088,2.938c-1.924,1.111-3.49.219-3.5-1.993l-.044-15.632a7.657,7.657,0,0,1,3.473-6.017Z" transform="translate(-97.986 -27.711)" fill="#ff6429"/>
      <path id="Path_17385" data-name="Path 17385" d="M165.585,101.759l1.5,4.405,4.818-2.782-3.889,5.5,1.5,4.406-3.907-1-3.888,5.5,1.474-6.125-3.907-1,4.818-2.782Z" transform="translate(-135.62 -86.636)" fill="#fff"/>
      <path id="Path_17386" data-name="Path 17386" d="M89.176.235A2.459,2.459,0,0,0,86.7.478L67.947,11.3a7.117,7.117,0,0,0-2.469,2.611l8.377,4.837a7.119,7.119,0,0,1,2.469-2.611L95.073,5.315a2.459,2.459,0,0,1,2.48-.243Z" transform="translate(-55.747 0)" fill="#fff"/>
      <path id="Path_17387" data-name="Path 17387" d="M59.725,93.626a7.048,7.048,0,0,0-1,3.406l.044,15.632a2.44,2.44,0,0,0,1.017,2.236l8.377,4.837a2.44,2.44,0,0,1-1.017-2.236L67.1,101.869a7.048,7.048,0,0,1,1-3.406Z" transform="translate(-49.994 -79.712)" fill="#280a38"/>
    </g>
  </g>
</svg>
