<svg xmlns="http://www.w3.org/2000/svg" xmlns:xlink="http://www.w3.org/1999/xlink" width="86" height="86" viewBox="0 0 86 86">
  <defs>
    <clipPath id="clip-path">
      <rect id="Rectangle_14122" data-name="Rectangle 14122" width="86" height="86" transform="translate(0 0.328)" fill="none"/>
    </clipPath>
  </defs>
  <g id="icon-sustainability" transform="translate(0 -0.328)">
    <g id="Group_48143" data-name="Group 48143" clip-path="url(#clip-path)">
      <path id="Path_17309" data-name="Path 17309" d="M89.88,496.853a2.9,2.9,0,0,0-2.9,2.9v11.126a2.9,2.9,0,0,0,5.793,0V499.75a2.9,2.9,0,0,0-2.9-2.9" transform="translate(-74.832 -427.444)" fill="#ff6429"/>
      <path id="Path_17310" data-name="Path 17310" d="M89.879,496.852a2.9,2.9,0,0,0-2.9,2.9v5.929a6.8,6.8,0,0,0,5.793,0v-5.929a2.9,2.9,0,0,0-2.9-2.9" transform="translate(-74.831 -427.443)" fill="#280a38"/>
      <path id="Path_17311" data-name="Path 17311" d="M15.048,216.825a25.347,25.347,0,0,1-10.731-2.14C1.063,213.116-.5,210.918.141,208.807c3.236-10.681,13.063-40.742,14.908-46.376,1.846,5.632,11.688,35.7,14.908,46.389.634,2.1-.928,4.3-4.179,5.866a25.34,25.34,0,0,1-10.729,2.139Z" transform="translate(0 -139.74)" fill="#00d273"/>
      <path id="Path_17312" data-name="Path 17312" d="M38.558,200.312h0a21.361,21.361,0,0,0,9.044-1.8,9.273,9.273,0,0,0,2.192-1.425c-4.193-13.148-9.877-30.512-11.235-34.655-1.357,4.146-7.036,21.516-11.231,34.66a9.277,9.277,0,0,0,2.186,1.42,21.369,21.369,0,0,0,9.045,1.8" transform="translate(-23.509 -139.739)" fill="#00a85c"/>
      <path id="Path_17313" data-name="Path 17313" d="M36.883,155.142A19.425,19.425,0,0,1,28.66,153.5c-2.469-1.19-3.655-2.848-3.175-4.435,2.451-8.091,9.819-30.64,11.4-35.462,1.58,4.823,8.959,27.374,11.4,35.471.477,1.582-.711,3.237-3.177,4.426a19.418,19.418,0,0,1-8.221,1.639Z" transform="translate(-21.835 -97.736)" fill="#00d273"/>
      <path id="Path_17314" data-name="Path 17314" d="M56.75,141.34h0a16.352,16.352,0,0,0,6.922-1.379,7.612,7.612,0,0,0,1.358-.825c-3.123-9.774-7.16-22.108-8.28-25.528-1.119,3.42-5.152,15.76-8.277,25.532a7.615,7.615,0,0,0,1.353.821,16.357,16.357,0,0,0,6.923,1.379" transform="translate(-41.702 -97.737)" fill="#00a85c"/>
      <path id="Path_17315" data-name="Path 17315" d="M53.677,113.76a14.869,14.869,0,0,1-6.293-1.253c-1.864-.9-2.763-2.142-2.4-3.325,1.579-5.21,5.808-18.215,7.856-24.488a.887.887,0,0,1,1.686,0c2.05,6.273,6.284,19.282,7.855,24.5.355,1.18-.544,2.42-2.406,3.318a14.864,14.864,0,0,1-6.293,1.253Z" transform="translate(-38.629 -72.335)" fill="#00d273"/>
      <path id="Path_17316" data-name="Path 17316" d="M492.41,496.853a2.9,2.9,0,0,0-2.9,2.9v11.126a2.9,2.9,0,0,0,5.793,0V499.75a2.9,2.9,0,0,0-2.9-2.9" transform="translate(-421.129 -427.444)" fill="#ff6429"/>
      <path id="Path_17317" data-name="Path 17317" d="M492.409,496.852a2.9,2.9,0,0,0-2.9,2.9v5.929a6.8,6.8,0,0,0,5.793,0v-5.929a2.9,2.9,0,0,0-2.9-2.9" transform="translate(-421.128 -427.443)" fill="#280a38"/>
      <path id="Path_17318" data-name="Path 17318" d="M417.578,216.825a25.347,25.347,0,0,1-10.731-2.14c-3.255-1.569-4.816-3.767-4.177-5.878,3.236-10.681,13.063-40.742,14.908-46.376,1.846,5.632,11.688,35.7,14.908,46.389.634,2.1-.928,4.3-4.179,5.866a25.34,25.34,0,0,1-10.729,2.139Z" transform="translate(-346.298 -139.74)" fill="#00d273"/>
      <path id="Path_17319" data-name="Path 17319" d="M441.089,200.312h0a21.361,21.361,0,0,0,9.044-1.8,9.273,9.273,0,0,0,2.192-1.425c-4.193-13.148-9.877-30.512-11.235-34.655-1.357,4.146-7.036,21.516-11.231,34.66a9.277,9.277,0,0,0,2.186,1.42,21.369,21.369,0,0,0,9.045,1.8" transform="translate(-369.808 -139.739)" fill="#00a85c"/>
      <path id="Path_17320" data-name="Path 17320" d="M439.413,155.142a19.425,19.425,0,0,1-8.223-1.639c-2.469-1.19-3.655-2.848-3.175-4.435,2.451-8.091,9.819-30.64,11.4-35.462,1.58,4.823,8.959,27.374,11.4,35.471.477,1.582-.711,3.237-3.177,4.426a19.418,19.418,0,0,1-8.221,1.639Z" transform="translate(-368.133 -97.736)" fill="#00d273"/>
      <path id="Path_17321" data-name="Path 17321" d="M459.28,141.34h0a16.351,16.351,0,0,0,6.922-1.379,7.612,7.612,0,0,0,1.358-.825c-3.123-9.774-7.16-22.108-8.28-25.528-1.119,3.42-5.152,15.76-8.277,25.532a7.615,7.615,0,0,0,1.353.821,16.357,16.357,0,0,0,6.923,1.379" transform="translate(-388 -97.737)" fill="#00a85c"/>
      <path id="Path_17322" data-name="Path 17322" d="M456.208,113.76a14.869,14.869,0,0,1-6.293-1.253c-1.864-.9-2.763-2.142-2.4-3.325,1.579-5.21,5.808-18.215,7.856-24.488a.886.886,0,0,1,1.685,0c2.05,6.273,6.285,19.282,7.855,24.5.355,1.18-.544,2.42-2.406,3.318a14.864,14.864,0,0,1-6.293,1.253Z" transform="translate(-384.927 -72.335)" fill="#00d273"/>
      <path id="Path_17323" data-name="Path 17323" d="M295.6,309.579a2.173,2.173,0,0,0-2.173,2.173V320.1a2.173,2.173,0,0,0,4.345,0v-8.344a2.172,2.172,0,0,0-2.172-2.173" transform="translate(-252.439 -266.332)" fill="#ff6429"/>
      <path id="Path_17324" data-name="Path 17324" d="M295.6,309.579a2.173,2.173,0,0,0-2.173,2.173V316.2a5.1,5.1,0,0,0,4.345,0v-4.447a2.173,2.173,0,0,0-2.173-2.173" transform="translate(-252.439 -266.332)" fill="#280a38"/>
      <path id="Path_17325" data-name="Path 17325" d="M239.481,99.557a19.013,19.013,0,0,1-8.048-1.6c-2.441-1.177-3.612-2.825-3.132-4.408,2.427-8.011,9.8-30.556,11.181-34.782,1.384,4.224,8.766,26.774,11.181,34.791.476,1.579-.7,3.224-3.134,4.4a19,19,0,0,1-8.047,1.6Z" transform="translate(-196.316 -50.553)" fill="#00d273"/>
      <path id="Path_17326" data-name="Path 17326" d="M257.112,87.175h0a16.017,16.017,0,0,0,6.782-1.352,6.953,6.953,0,0,0,1.644-1.069c-3.145-9.861-7.408-22.884-8.426-25.991-1.018,3.109-5.277,16.137-8.423,25.995a6.961,6.961,0,0,0,1.639,1.065,16.026,16.026,0,0,0,6.784,1.352" transform="translate(-213.948 -50.554)" fill="#00a85c"/>
      <path id="Path_17327" data-name="Path 17327" d="M255.857,53.3a14.57,14.57,0,0,1-6.167-1.229c-1.852-.893-2.742-2.136-2.381-3.326,1.838-6.068,7.365-22.98,8.548-26.6,1.185,3.617,6.719,20.531,8.549,26.6.357,1.187-.533,2.428-2.383,3.319a14.563,14.563,0,0,1-6.166,1.229Z" transform="translate(-212.692 -19.051)" fill="#00d273"/>
      <path id="Path_17328" data-name="Path 17328" d="M270.757,42.944h0a12.264,12.264,0,0,0,5.191-1.034,5.707,5.707,0,0,0,1.019-.619c-2.342-7.33-5.37-16.581-6.21-19.146-.84,2.565-3.864,11.82-6.208,19.149a5.711,5.711,0,0,0,1.015.616,12.266,12.266,0,0,0,5.192,1.034" transform="translate(-227.593 -19.051)" fill="#00a85c"/>
      <path id="Path_17329" data-name="Path 17329" d="M268.452,22.259a11.153,11.153,0,0,1-4.72-.94c-1.4-.674-2.072-1.606-1.8-2.494,1.184-3.908,4.356-13.662,5.892-18.366a.665.665,0,0,1,1.264,0c1.538,4.7,4.713,14.461,5.891,18.372.266.885-.408,1.815-1.8,2.489a11.149,11.149,0,0,1-4.719.94Z" transform="translate(-225.288 -0.001)" fill="#00d273"/>
    </g>
  </g>
</svg>
