<svg xmlns="http://www.w3.org/2000/svg" width="201.484" height="72.057"><defs><clipPath id="a"><path data-name="Rectangle 3426" fill="none" d="M0 0h201.484v70.012H0z"/></clipPath></defs><g data-name="logo-gartnet peer"><text data-name="4.4" transform="translate(115.134 21.159)" fill="#290a38" font-size="21" font-family="SharpSans-Medium, Sharp Sans" font-weight="500"><tspan x="0" y="0">4.4</tspan></text><g data-name="logo-gartnet peer"><g data-name="Group 9847" transform="translate(0 2.044)" clip-path="url(#a)"><path data-name="Path 4983" d="m94.631 7.029-.265 3.29h-1.335a3.229 3.229 0 0 0-3.245 3.377v7.423h-3.778V7.029h3.6l.089 1.775a4.129 4.129 0 0 1 3.69-1.778Z" fill="#002856"/><path data-name="Path 4984" d="M68.273 21.072H64.45v-7.42c0-1.555-.133-3.511-2.311-3.511-2.089 0-2.934 1.511-2.934 3.288v7.643h-3.822V7.029h3.511l.089 1.778a4.79 4.79 0 0 1 4.222-2.135c3.824 0 5.023 2.756 5.023 5.6v8.8Z" fill="#002856"/><path data-name="Path 4985" d="m53.737 17.785-.267 3.2a9.288 9.288 0 0 1-2.712.31c-3.6 0-4.623-1.644-4.623-4.932V3.029h3.824v3.956h3.778l-.267 3.288h-3.51v5.824c0 1.333.356 2.044 1.733 2.044a5.344 5.344 0 0 0 2.044-.356" fill="#002856"/><path data-name="Path 4986" d="m44.893 7.029-.311 3.29H43.56a3.192 3.192 0 0 0-3.2 3.377v7.423h-3.823V7.029h3.6l.089 1.775a4.156 4.156 0 0 1 3.733-1.778Z" fill="#002856"/><path data-name="Path 4987" d="M19.379 19.518a16.277 16.277 0 0 1-8.579 2.089C4.534 21.429 0 17.518 0 10.899S4.578.099 10.845.005a11.6 11.6 0 0 1 8.222 2.71L16.4 5.427a8.243 8.243 0 0 0-5.822-1.778c-3.911.178-6.311 3.068-6.356 7.023-.044 4.267 2.578 7.2 6.667 7.334a10.071 10.071 0 0 0 4.489-.756v-4.351h-4.266l.267-3.6h8Z" fill="#002856"/><path data-name="Path 4988" d="M80.452 12.45a3 3 0 0 0-3.29-2.844 3.368 3.368 0 0 0-3.333 2.844Zm3.778 2.938H73.785a3.486 3.486 0 0 0 3.466 2.934 4.687 4.687 0 0 0 3.911-1.734l2.489 1.913a7.615 7.615 0 0 1-6.311 2.977 7.131 7.131 0 0 1-7.423-7.377 7.064 7.064 0 0 1 7.245-7.379c4.534 0 6.979 2.756 6.979 7.6v1.066Z" fill="#002856"/><path data-name="Path 4989" d="M30.488 14.941h-.534c-1.778 0-4.979.089-4.934 1.956 0 2.667 5.468 1.822 5.468-1.379Zm3.693-3.069v9.2h-3.334l-.087-1.377a5.437 5.437 0 0 1-4.4 1.733c-2.577 0-5.021-1.29-5.066-4.267-.089-4.667 5.244-5.023 8.623-5.023h.667v-.131c0-1.555-1.023-2.4-2.934-2.4a5.316 5.316 0 0 0-3.733 1.511l-2.182-2.223a9.608 9.608 0 0 1 6.268-2.223c4.222 0 6.178 2 6.178 5.2" fill="#002856"/><path data-name="Path 4990" d="M92.808 19.34v-.667h.443c.222 0 .489.044.489.311 0 .356-.267.356-.534.356Zm0 .267h.4l.578.934h.357l-.624-.979a.6.6 0 0 0 .58-.623c0-.445-.268-.621-.758-.621h-.842v2.178h.31Zm.4 1.733a1.889 1.889 0 1 0-1.909-1.911 1.843 1.843 0 0 0 1.909 1.911m-1.555-1.867a1.518 1.518 0 0 1 1.555-1.555 1.545 1.545 0 0 1 1.557 1.555 1.529 1.529 0 0 1-1.557 1.6 1.583 1.583 0 0 1-1.555-1.6" fill="#002856"/><path data-name="Path 4991" d="M17.425 45.476v.133c0 5.334-4 7.423-8.8 7.423H4.533v10.223H1.512V38.142h7.156c4.8 0 8.756 2.133 8.756 7.334m-3.023.178v-.133c0-3.555-2.133-4.89-5.512-4.89H4.578v10.046h4.267c3.6-.044 5.557-1.778 5.557-5.023" fill="#002856"/><path data-name="Path 4992" d="M18.268 54.321v-.267c0-5.557 3.555-9.423 8.623-9.423 4.267 0 8.267 2.578 8.267 9.156v.934H21.334c.133 4.178 2.135 6.489 5.913 6.489 2.845 0 4.489-1.068 4.89-3.2h2.931c-.621 3.69-3.689 5.646-7.867 5.646-5.2-.044-8.934-3.69-8.934-9.334m8.667-7.29c-2.979 0-4.979 2.044-5.468 5.334h10.759c-.311-3.824-2.267-5.334-5.29-5.334" fill="#002856"/><path data-name="Path 4993" d="M37.738 54.321v-.267c0-5.557 3.554-9.423 8.623-9.423 4.267 0 8.267 2.578 8.267 9.156v.934H40.759c.133 4.178 2.135 6.489 5.911 6.489 2.845 0 4.491-1.068 4.891-3.2h2.932c-.623 3.69-3.689 5.646-7.868 5.646-5.2-.044-8.888-3.69-8.888-9.334m8.623-7.29c-2.979 0-4.98 2.044-5.512 5.334h10.758c-.224-3.824-2.224-5.331-5.245-5.331" fill="#002856"/><path data-name="Path 4994" d="M61.25 48.188a6.464 6.464 0 0 1 6.044-3.644v2.759c-3.689.178-6.044 1.334-6.044 5.868v10.085h-2.934V44.903h2.934Z" fill="#002856"/><path data-name="Rectangle 3425" fill="#40b3e1" d="M77.029 38.143h3.068v25.158h-3.068z"/><path data-name="Path 4995" d="M87.296 47.832a6.316 6.316 0 0 1 5.911-3.245c3.824 0 6.491 2.091 6.491 7.423V63.3h-2.934V51.788c0-3.244-1.379-4.667-4.311-4.667a4.859 4.859 0 0 0-5.156 5.023V63.3h-2.935V44.9h2.934Z" fill="#40b3e1"/><path data-name="Path 4996" d="M102.054 57.654h2.845c.222 2.178 1.377 3.555 4.356 3.555 2.756 0 4-.932 4-2.932s-1.422-2.578-4.311-3.112c-4.8-.89-6.4-2.222-6.4-5.422 0-3.423 3.333-5.156 6.222-5.156 3.29 0 6.178 1.333 6.667 5.333h-2.8c-.4-2-1.555-2.888-3.867-2.888-2.133 0-3.466 1.066-3.466 2.623 0 1.644.932 2.311 4.311 2.932 3.822.712 6.489 1.557 6.489 5.468 0 3.333-2.267 5.6-6.756 5.6-4.445-.044-7.112-2.267-7.29-6" fill="#40b3e1"/><path data-name="Path 4997" d="M118.811 39.12a1.944 1.944 0 0 1 1.956-1.951 1.908 1.908 0 0 1 1.952 1.906 1.956 1.956 0 0 1-3.911.044m3.466 24.181h-2.931V44.899h2.934Z" fill="#40b3e1"/><path data-name="Path 4998" d="M125.921 64.366h2.979c.445 2.133 2.178 3.2 5.334 3.2 3.6 0 5.911-1.733 5.911-5.69v-2.665a7.53 7.53 0 0 1-6.222 3.466c-4.845 0-8.4-3.644-8.4-8.712v-.263c0-4.979 3.512-9.156 8.58-9.156a6.477 6.477 0 0 1 6 3.29v-2.934h2.89v17.152c-.044 5.334-3.646 7.957-8.8 7.957-5.379.044-7.779-2.534-8.268-5.646m14.309-10.578v-.267c0-4.133-2.267-6.534-5.822-6.534-3.646 0-5.824 2.712-5.824 6.578v.267c0 4 2.578 6.4 5.69 6.4 3.377.044 5.955-2.356 5.955-6.445" fill="#40b3e1"/><path data-name="Path 4999" d="M150.592 47.833a6.314 6.314 0 0 1 5.911-3.245c3.778 0 6.489 2.091 6.489 7.423v11.29h-2.934V51.788c0-3.244-1.377-4.667-4.31-4.667a4.859 4.859 0 0 0-5.156 5.023V63.3h-2.934V36.1h2.934Z" fill="#40b3e1"/><path data-name="Path 5000" d="M167.704 58.722V47.386h-2.623v-2.488h2.623V40.72h2.934v4.178h4.311v2.488h-4.311v11.069c0 1.778.8 2.667 2.267 2.667a6.586 6.586 0 0 0 2.267-.4v2.444a7.89 7.89 0 0 1-2.489.4c-3.379 0-4.979-2-4.979-4.845" fill="#40b3e1"/><path data-name="Path 5001" d="M176.593 57.654h2.845c.222 2.178 1.377 3.555 4.311 3.555 2.8 0 4-.932 4-2.932s-1.422-2.578-4.311-3.112c-4.8-.89-6.4-2.222-6.4-5.422 0-3.423 3.333-5.156 6.222-5.156 3.29 0 6.178 1.333 6.667 5.333h-2.8c-.443-2-1.555-2.888-3.867-2.888-2.133 0-3.466 1.066-3.466 2.623 0 1.644.932 2.311 4.311 2.932 3.822.712 6.489 1.557 6.489 5.468 0 3.333-2.267 5.6-6.756 5.6-4.445-.044-7.067-2.267-7.245-6" fill="#40b3e1"/><path data-name="Path 5002" d="M193.04 59.345h3.334v.667h-1.245v3.775h-.845v-3.775h-1.244Z" fill="#002856"/><path data-name="Path 5003" d="m199.218 62.411 1.155-3.023h1.112v4.445h-.845v-3.377l-1.333 3.377h-.267l-1.333-3.377v3.377h-.756v-4.445h1.112Z" fill="#002856"/></g></g><path data-name="Path 4971" d="m167.948 0-2.981 9.177h-9.651l7.808 5.672-2.983 9.178 7.807-5.672 7.807 5.672-2.982-9.178 7.808-5.672h-9.65Z" fill="#14b5f0"/></g></svg>