<svg xmlns="http://www.w3.org/2000/svg" xmlns:xlink="http://www.w3.org/1999/xlink" width="198.561" height="72.571" viewBox="0 0 198.561 72.571">
  <defs>
    <clipPath id="clip-path">
      <rect id="Rectangle_3424" data-name="Rectangle 3424" width="108.361" height="23.947" fill="none"/>
    </clipPath>
    <clipPath id="clip-path-2">
      <rect id="Rectangle_3427" data-name="Rectangle 3427" width="33.869" height="34.821" fill="none"/>
    </clipPath>
  </defs>
  <g id="logo-capterra_G2" data-name="logo-capterra G2" transform="translate(-179 -1013)">
    <text id="_4.5" data-name="4.5" transform="translate(309.204 1078.571)" fill="#290a38" font-size="20" font-family="SharpSans-Medium, Sharp Sans" font-weight="500"><tspan x="0" y="0">4.5</tspan></text>
    <path id="Path_5007" data-name="Path 5007" d="M14.285,0,10.914,10.378H0l8.83,6.415L5.457,27.172l8.829-6.414,8.829,6.414L19.741,16.793l8.83-6.415H17.658Z" transform="translate(348.99 1056.13)" fill="#00d273"/>
    <g id="logo-capterra" transform="translate(179 1017.883)">
      <path id="Path_4966" data-name="Path 4966" d="M0,9.286l9.931,0,6.039,0V3.307Z" transform="translate(0 -0.481)" fill="#ff9d28"/>
      <path id="Path_4967" data-name="Path 4967" d="M18.693,2.825V23.947L26.235,0Z" transform="translate(-2.723 0)" fill="#68c5ed"/>
      <path id="Path_4968" data-name="Path 4968" d="M17.663,25.448V10.309l-6.039,0Z" transform="translate(-1.693 -1.501)" fill="#044d80"/>
      <path id="Path_4969" data-name="Path 4969" d="M11.48,14.193,9.931,10.307H0Z" transform="translate(0 -1.501)" fill="#e54747"/>
      <g id="Group_9843" data-name="Group 9843" transform="translate(0 0)">
        <g id="Group_9842" data-name="Group 9842" clip-path="url(#clip-path)">
          <path id="Path_4970" data-name="Path 4970" d="M40.965,19.117a2.889,2.889,0,0,1-.437.328,4.9,4.9,0,0,1-.8.394,7.018,7.018,0,0,1-1.2.338,8.368,8.368,0,0,1-1.63.143,7.548,7.548,0,0,1-3.062-.569A5.7,5.7,0,0,1,31.7,18.165a6.5,6.5,0,0,1-1.235-2.407,11.168,11.168,0,0,1-.394-3.051A10.58,10.58,0,0,1,30.5,9.633a6.9,6.9,0,0,1,1.28-2.439A5.891,5.891,0,0,1,33.91,5.586a7.24,7.24,0,0,1,3.008-.579,7.154,7.154,0,0,1,1.542.153,7.713,7.713,0,0,1,1.2.361,4.585,4.585,0,0,1,.853.437,5.687,5.687,0,0,1,.514.383,1.779,1.779,0,0,1,.339.415,1.023,1.023,0,0,1,.142.525,1.454,1.454,0,0,1-.328.875,6.324,6.324,0,0,1-.722.809c-.175-.175-.372-.353-.59-.536a3.98,3.98,0,0,0-.733-.481,4.864,4.864,0,0,0-.918-.35,4.314,4.314,0,0,0-1.149-.142,3.432,3.432,0,0,0-3.084,1.618,4.984,4.984,0,0,0-.656,1.651,9.092,9.092,0,0,0-.2,1.892,9.554,9.554,0,0,0,.2,1.968,4.7,4.7,0,0,0,.678,1.663,3.612,3.612,0,0,0,1.258,1.159,4.4,4.4,0,0,0,3.063.284,4.5,4.5,0,0,0,.907-.372,4.69,4.69,0,0,0,.689-.46q.295-.24.492-.415.131.154.306.372a5.1,5.1,0,0,1,.328.46,3.99,3.99,0,0,1,.262.481,1.064,1.064,0,0,1,.109.437.97.97,0,0,1-.109.481A2.081,2.081,0,0,1,40.965,19.117Zm11.273-1.678a4.846,4.846,0,0,0,.506,2.531,4.37,4.37,0,0,1-.737.22,3.792,3.792,0,0,1-.715.066,1.966,1.966,0,0,1-1.2-.308,1.38,1.38,0,0,1-.517-.88,3.979,3.979,0,0,1-1.276.859,4.77,4.77,0,0,1-1.937.352,4.448,4.448,0,0,1-1.188-.164,3.132,3.132,0,0,1-1.078-.537,2.791,2.791,0,0,1-.792-1,3.418,3.418,0,0,1-.308-1.524,2.9,2.9,0,0,1,.539-1.821,3.829,3.829,0,0,1,1.353-1.108,6.125,6.125,0,0,1,1.761-.56,16.585,16.585,0,0,1,1.739-.2q.264-.022.517-.022h.473v-.4a1.441,1.441,0,0,0-.451-1.2,2.376,2.376,0,0,0-1.463-.356,4.338,4.338,0,0,0-1.683.308,13.869,13.869,0,0,0-1.442.7,3.2,3.2,0,0,1-.495-.825,1.983,1.983,0,0,1-.187-.671A.8.8,0,0,1,44,10.308a3.335,3.335,0,0,1,.936-.517A7.666,7.666,0,0,1,46.3,9.417a8.955,8.955,0,0,1,1.628-.143,7.237,7.237,0,0,1,2.014.242,3.141,3.141,0,0,1,1.342.748,2.839,2.839,0,0,1,.737,1.265,6.379,6.379,0,0,1,.22,1.771ZM49.42,14.886h-.308a2.193,2.193,0,0,0-.308.022q-.55.044-1.089.132a3.117,3.117,0,0,0-.957.308,2,2,0,0,0-.683.572,1.464,1.464,0,0,0-.264.9,1.592,1.592,0,0,0,.352,1.045,1.457,1.457,0,0,0,1.188.43,2.8,2.8,0,0,0,.793-.11,2.739,2.739,0,0,0,.66-.286,1.693,1.693,0,0,0,.451-.385.642.642,0,0,0,.166-.385V14.886Zm8.3-4.335a4.113,4.113,0,0,1,1.1-.848A3.74,3.74,0,0,1,60.7,9.274a4.372,4.372,0,0,1,1.547.275,3.382,3.382,0,0,1,1.305.891,4.442,4.442,0,0,1,.91,1.628,7.866,7.866,0,0,1,.34,2.487,8.573,8.573,0,0,1-.395,2.828,4.825,4.825,0,0,1-1.02,1.76A3.509,3.509,0,0,1,62,20.057a4.7,4.7,0,0,1-1.536.264,3.816,3.816,0,0,1-1.107-.143,4.414,4.414,0,0,1-.8-.32,2.108,2.108,0,0,1-.724-.594v5.41H54.834V9.582c.073-.015.162-.029.266-.044s.192-.026.311-.033.259-.011.421-.011a2.877,2.877,0,0,1,1.241.243A1.138,1.138,0,0,1,57.717,10.551Zm3.962,4.071a6.6,6.6,0,0,0-.109-1.233,3.025,3.025,0,0,0-.361-.99,1.757,1.757,0,0,0-.678-.649,2.161,2.161,0,0,0-1.039-.231,1.826,1.826,0,0,0-1.281.352,1.064,1.064,0,0,0-.361.771v4.666a2.81,2.81,0,0,0,.623.418,2.155,2.155,0,0,0,1.04.242,1.774,1.774,0,0,0,1.641-.88,4.829,4.829,0,0,0,.525-2.465m5.434,3.785a3.87,3.87,0,0,1-.2-.924q-.044-.483-.044-.968V6.3l.33-.044c.1-.015.213-.026.33-.033s.235-.011.353-.011a3.856,3.856,0,0,1,.7.066,1.648,1.648,0,0,1,.638.265,1.453,1.453,0,0,1,.462.539,1.949,1.949,0,0,1,.176.891V9.538h3.081v2.222H69.864v4.693q0,1.535,1.254,1.535a1.715,1.715,0,0,0,.584-.1,3.372,3.372,0,0,0,.495-.22,2.664,2.664,0,0,0,.385-.253c.11-.088.187-.154.232-.2a7.616,7.616,0,0,1,.506.839,1.5,1.5,0,0,1,.176.665.88.88,0,0,1-.231.566,2.265,2.265,0,0,1-.649.511,4.018,4.018,0,0,1-1.012.378,5.485,5.485,0,0,1-1.3.145,3.682,3.682,0,0,1-2.124-.529A2.807,2.807,0,0,1,67.113,18.407Zm13.412-.286A3.537,3.537,0,0,0,81.5,18a3.865,3.865,0,0,0,.751-.3,3.1,3.1,0,0,0,.574-.385c.161-.139.309-.267.442-.384a6.055,6.055,0,0,1,.552.847,1.875,1.875,0,0,1,.287.848,1.1,1.1,0,0,1-.55.88,4.128,4.128,0,0,1-1.309.606,7.015,7.015,0,0,1-1.992.253,7.946,7.946,0,0,1-2.035-.264,4.509,4.509,0,0,1-1.783-.924,4.759,4.759,0,0,1-1.265-1.772,7.048,7.048,0,0,1-.484-2.806,6.038,6.038,0,0,1,.43-2.388,4.793,4.793,0,0,1,1.144-1.661,4.522,4.522,0,0,1,1.617-.969,5.694,5.694,0,0,1,1.849-.308,5.1,5.1,0,0,1,2.091.384,3.818,3.818,0,0,1,1.4,1.035,4.078,4.078,0,0,1,.781,1.486,6.3,6.3,0,0,1,.243,1.76v.308c0,.118,0,.242-.011.374s-.015.261-.022.385a2.514,2.514,0,0,1-.032.3H77.677a3.471,3.471,0,0,0,.75,2.014A2.565,2.565,0,0,0,80.525,18.12Zm1-4.467a3.223,3.223,0,0,0-.409-1.716,1.593,1.593,0,0,0-1.472-.66,1.819,1.819,0,0,0-1.45.627,2.589,2.589,0,0,0-.542,1.749Zm7.915-3.047a3.7,3.7,0,0,1,.352-.437,2.471,2.471,0,0,1,.539-.437,3.437,3.437,0,0,1,.7-.328,2.555,2.555,0,0,1,.825-.131,3.879,3.879,0,0,1,.561.044,1.95,1.95,0,0,1,.55.163,1.077,1.077,0,0,1,.408.328.834.834,0,0,1,.154.513,3.111,3.111,0,0,1-.242,1.1,9.013,9.013,0,0,1-.484,1.063,3.236,3.236,0,0,0-.748-.472,2.162,2.162,0,0,0-.88-.166,1.691,1.691,0,0,0-1.144.4,1.212,1.212,0,0,0-.463.949v7.124H86.582V9.582q.11-.022.264-.044c.088-.015.191-.026.308-.033s.256-.011.418-.011a2.593,2.593,0,0,1,1.222.273A1.224,1.224,0,0,1,89.443,10.606Zm8.509,0a3.7,3.7,0,0,1,.352-.437,2.47,2.47,0,0,1,.539-.437,3.436,3.436,0,0,1,.7-.328,2.551,2.551,0,0,1,.825-.131,3.879,3.879,0,0,1,.561.044,1.95,1.95,0,0,1,.55.163,1.077,1.077,0,0,1,.408.328.834.834,0,0,1,.154.513,3.111,3.111,0,0,1-.242,1.1,9.013,9.013,0,0,1-.484,1.063,3.236,3.236,0,0,0-.748-.472,2.165,2.165,0,0,0-.88-.166,1.7,1.7,0,0,0-1.145.4,1.214,1.214,0,0,0-.462.949v7.124H95.091V9.582q.11-.022.264-.044c.088-.015.191-.026.308-.033s.256-.011.418-.011a2.593,2.593,0,0,1,1.222.273A1.224,1.224,0,0,1,97.952,10.606Zm14.282,6.832a4.837,4.837,0,0,0,.507,2.531,4.394,4.394,0,0,1-.737.22,3.8,3.8,0,0,1-.715.066,1.962,1.962,0,0,1-1.2-.308,1.381,1.381,0,0,1-.518-.88,3.961,3.961,0,0,1-1.276.859,4.769,4.769,0,0,1-1.936.352,4.444,4.444,0,0,1-1.188-.164,3.125,3.125,0,0,1-1.078-.537,2.8,2.8,0,0,1-.793-1,3.43,3.43,0,0,1-.308-1.524,2.9,2.9,0,0,1,.539-1.821,3.814,3.814,0,0,1,1.353-1.108,6.109,6.109,0,0,1,1.761-.56,16.57,16.57,0,0,1,1.738-.2c.177-.015.349-.022.518-.022h.473v-.4a1.441,1.441,0,0,0-.452-1.2,2.375,2.375,0,0,0-1.463-.356,4.339,4.339,0,0,0-1.684.308,13.854,13.854,0,0,0-1.441.7,3.207,3.207,0,0,1-.5-.825,1.982,1.982,0,0,1-.187-.671.8.8,0,0,1,.342-.595,3.341,3.341,0,0,1,.935-.517,7.666,7.666,0,0,1,1.364-.374,8.964,8.964,0,0,1,1.629-.143,7.23,7.23,0,0,1,2.013.242,3.149,3.149,0,0,1,1.343.748,2.847,2.847,0,0,1,.737,1.265,6.414,6.414,0,0,1,.22,1.771Zm-2.817-2.553h-.308a2.191,2.191,0,0,0-.308.022c-.367.029-.73.073-1.089.132a3.122,3.122,0,0,0-.958.308,2.006,2.006,0,0,0-.682.572,1.464,1.464,0,0,0-.264.9,1.592,1.592,0,0,0,.352,1.045,1.456,1.456,0,0,0,1.188.43,2.79,2.79,0,0,0,.792-.11,2.746,2.746,0,0,0,.66-.286,1.706,1.706,0,0,0,.451-.385.64.64,0,0,0,.165-.385Z" transform="translate(-4.38 -0.729)" fill="#044d80"/>
        </g>
      </g>
    </g>
    <g id="logo-co2" transform="translate(318.376 1013)">
      <g id="Group_9849" data-name="Group 9849" transform="translate(0 0)" clip-path="url(#clip-path-2)">
        <path id="Path_5004" data-name="Path 5004" d="M23.866,24.808c1.281,2.223,2.548,4.42,3.813,6.616A17.382,17.382,0,0,1,2.228,8.9,17.266,17.266,0,0,1,20.873.387c-.149.324-3.45,7.172-3.45,7.172s-.261.017-.409.02A9.3,9.3,0,0,0,12.872,8.7a9.853,9.853,0,0,0-5.231,7.607,9.61,9.61,0,0,0,.651,4.776,9.76,9.76,0,0,0,2.258,3.369,9.645,9.645,0,0,0,5.439,2.682,9.449,9.449,0,0,0,5.7-.9A11.62,11.62,0,0,0,23.6,25.013c.085-.055.161-.125.264-.2" transform="translate(0 0)" fill="#ff492c"/>
        <path id="Path_5005" data-name="Path 5005" d="M34.058,5.88c-.325-.32-.627-.615-.927-.912-.179-.177-.351-.362-.535-.535-.066-.062-.143-.148-.143-.148l.089-.187A4.085,4.085,0,0,1,34.1,2.471,4.318,4.318,0,0,1,36.511,1.8a4.518,4.518,0,0,1,2.964,1.025,2.834,2.834,0,0,1,1.014,2.045A3.306,3.306,0,0,1,38.878,8.05c-.666.434-1.386.77-2.106,1.167a4.306,4.306,0,0,0-1.126.81,1.4,1.4,0,0,0-.358.774l5.165-.007v2.3H32.479v-.222A6.538,6.538,0,0,1,33.1,9.652,5.318,5.318,0,0,1,35.2,7.49c.684-.409,1.406-.757,2.091-1.165a1.3,1.3,0,0,0,.72-1.152,1.053,1.053,0,0,0-.809-.992,2.514,2.514,0,0,0-2.86,1.208c-.086.15-.175.3-.288.491" transform="translate(-10.179 -0.565)" fill="#ff492c"/>
        <path id="Path_5006" data-name="Path 5006" d="M41.42,29.148l-4.353-7.517H28.454l-4.381,7.594H32.75l4.281,7.481Z" transform="translate(-7.551 -6.784)" fill="#ff492c"/>
      </g>
    </g>
    <text id="_4.6" data-name="4.6" transform="translate(187.138 1079.571)" fill="#290a38" font-size="21" font-family="SharpSans-Medium, Sharp Sans" font-weight="500"><tspan x="0" y="0">4.6</tspan></text>
    <path id="Path_5008" data-name="Path 5008" d="M14.285,0,10.914,10.378H0l8.83,6.415L5.457,27.172l8.829-6.414,8.829,6.414L19.741,16.793l8.83-6.415H17.658Z" transform="translate(226.924 1056.13)" fill="#ff6429"/>
  </g>
</svg>
