<svg width="12" height="14" viewBox="0 0 12 14" fill="none" xmlns="http://www.w3.org/2000/svg">
<path d="M8.794 0.333374C10.8533 0.333374 12 1.52004 12 3.55337V10.44C12 12.5067 10.8533 13.6667 8.794 13.6667H3.20667C1.18 13.6667 0 12.5067 0 10.44V3.55337C0 1.52004 1.18 0.333374 3.20667 0.333374H8.794ZM3.38667 9.49337C3.18667 9.47338 2.99333 9.56671 2.88667 9.74004C2.78 9.90671 2.78 10.1267 2.88667 10.3C2.99333 10.4667 3.18667 10.5667 3.38667 10.54H8.61333C8.87933 10.5134 9.08 10.286 9.08 10.02C9.08 9.74671 8.87933 9.52004 8.61333 9.49337H3.38667ZM8.61333 6.45271H3.38667C3.09933 6.45271 2.86667 6.68671 2.86667 6.97337C2.86667 7.26004 3.09933 7.49337 3.38667 7.49337H8.61333C8.9 7.49337 9.13333 7.26004 9.13333 6.97337C9.13333 6.68671 8.9 6.45271 8.61333 6.45271ZM5.37933 3.43337H3.38667V3.44004C3.09933 3.44004 2.86667 3.67337 2.86667 3.96004C2.86667 4.24671 3.09933 4.48004 3.38667 4.48004H5.37933C5.66667 4.48004 5.9 4.24671 5.9 3.95271C5.9 3.66671 5.66667 3.43337 5.37933 3.43337Z" fill="#0C141F"/>
</svg>
