<svg width="16" height="16" viewBox="0 0 16 16" fill="none" xmlns="http://www.w3.org/2000/svg">
<path d="M8 11C8.79565 11 9.55871 10.6839 10.1213 10.1213C10.6839 9.55871 11 8.79565 11 8V4C11 3.20435 10.6839 2.44129 10.1213 1.87868C9.55871 1.31607 8.79565 1 8 1C7.20435 1 6.44129 1.31607 5.87868 1.87868C5.31607 2.44129 5 3.20435 5 4V8C5 8.79565 5.31607 9.55871 5.87868 10.1213C6.44129 10.6839 7.20435 11 8 11Z" fill="#1A2638"/>
<path d="M12.5 6.5C12.3674 6.5 12.2402 6.55268 12.1464 6.64645C12.0527 6.74021 12 6.86739 12 7V8C12 9.06087 11.5786 10.0783 10.8284 10.8284C10.0783 11.5786 9.06087 12 8 12C6.93913 12 5.92172 11.5786 5.17157 10.8284C4.42143 10.0783 4 9.06087 4 8V7C4 6.86739 3.94732 6.74021 3.85355 6.64645C3.75979 6.55268 3.63261 6.5 3.5 6.5C3.36739 6.5 3.24021 6.55268 3.14645 6.64645C3.05268 6.74021 3 6.86739 3 7V8C2.99998 9.23953 3.46038 10.4349 4.29188 11.3541C5.12337 12.2734 6.26668 12.851 7.5 12.975V14H5.5C5.36739 14 5.24021 14.0527 5.14645 14.1464C5.05268 14.2402 5 14.3674 5 14.5C5 14.6326 5.05268 14.7598 5.14645 14.8536C5.24021 14.9473 5.36739 15 5.5 15H10.5C10.6326 15 10.7598 14.9473 10.8536 14.8536C10.9473 14.7598 11 14.6326 11 14.5C11 14.3674 10.9473 14.2402 10.8536 14.1464C10.7598 14.0527 10.6326 14 10.5 14H8.5V12.975C9.73332 12.851 10.8766 12.2734 11.7081 11.3541C12.5396 10.4349 13 9.23953 13 8V7C13 6.86739 12.9473 6.74021 12.8536 6.64645C12.7598 6.55268 12.6326 6.5 12.5 6.5Z" fill="#1A2638"/>
</svg>
