<svg width="16" height="17" viewBox="0 0 16 17" fill="none" xmlns="http://www.w3.org/2000/svg">
<path d="M4.41996 8.24001L7.99996 5.36001L11.58 8.34668C11.6981 8.44461 11.8465 8.49877 12 8.50001C12.0979 8.50017 12.1947 8.47875 12.2834 8.43727C12.3721 8.39579 12.4506 8.33527 12.5133 8.26001C12.5694 8.19265 12.6117 8.11487 12.6378 8.03113C12.6638 7.9474 12.673 7.85935 12.665 7.77203C12.6569 7.68472 12.6317 7.59984 12.5908 7.52228C12.5499 7.44471 12.4941 7.37598 12.4266 7.32001L8.42663 3.98668C8.30734 3.88863 8.15771 3.83502 8.00329 3.83502C7.84888 3.83502 7.69925 3.88863 7.57996 3.98668L3.57996 7.20668C3.51148 7.2617 3.45454 7.3297 3.41242 7.40679C3.37031 7.48389 3.34384 7.56854 3.33455 7.65589C3.32526 7.74324 3.33332 7.83157 3.35828 7.9158C3.38323 8.00002 3.42458 8.07849 3.47996 8.14668C3.53545 8.21467 3.60383 8.27104 3.68115 8.31255C3.75848 8.35406 3.84324 8.37989 3.93058 8.38856C4.01791 8.39723 4.1061 8.38857 4.19008 8.36308C4.27406 8.33759 4.35218 8.29577 4.41996 8.24001Z" fill="white"/>
<path d="M8.42663 8.65331C8.30734 8.55525 8.15771 8.50165 8.00329 8.50165C7.84888 8.50165 7.69925 8.55525 7.57996 8.65331L3.57996 11.8733C3.51148 11.9283 3.45454 11.9963 3.41242 12.0734C3.37031 12.1505 3.34384 12.2352 3.33455 12.3225C3.32526 12.4099 3.33332 12.4982 3.35828 12.5824C3.38323 12.6667 3.42458 12.7451 3.47996 12.8133C3.53498 12.8818 3.60298 12.9387 3.68008 12.9808C3.75717 13.023 3.84182 13.0494 3.92917 13.0587C4.01653 13.068 4.10485 13.0599 4.18908 13.035C4.27331 13.01 4.35177 12.9687 4.41996 12.9133L7.99996 10.0266L11.58 13.0133C11.6981 13.1112 11.8465 13.1654 12 13.1666C12.0979 13.1668 12.1947 13.1454 12.2834 13.1039C12.3721 13.0624 12.4506 13.0019 12.5133 12.9266C12.5694 12.8593 12.6117 12.7815 12.6378 12.6978C12.6638 12.614 12.673 12.526 12.665 12.4387C12.6569 12.3513 12.6317 12.2665 12.5908 12.1889C12.5499 12.1113 12.4941 12.0426 12.4266 11.9866L8.42663 8.65331Z" fill="white"/>
</svg>
